<?xml version="1.0" encoding="utf-8"?>
<!-- Generator: Adobe Illustrator 25.1.0, SVG Export Plug-In . SVG Version: 6.00 Build 0)  -->
<svg version="1.1" xmlns="http://www.w3.org/2000/svg" xmlns:xlink="http://www.w3.org/1999/xlink" x="0px" y="0px"
	 viewBox="0 0 512 467.6" style="enable-background:new 0 0 512 467.6;" xml:space="preserve">
<style type="text/css">
	.st0{fill:url(#SVGID_1_);}
	.st1{fill:url(#SVGID_2_);}
	.st2{fill:url(#SVGID_3_);}
	.st3{fill:url(#SVGID_4_);}
	.st4{fill:url(#SVGID_5_);}
	.st5{fill:url(#SVGID_6_);}
	.st6{fill:url(#SVGID_7_);}
	.st7{fill:url(#SVGID_8_);}
	.st8{fill:url(#SVGID_9_);}
	.st9{fill:url(#SVGID_10_);}
	.st10{fill:url(#SVGID_11_);}
	.st11{fill:url(#SVGID_12_);}
	.st12{fill:url(#SVGID_13_);}
	.st13{fill:url(#SVGID_14_);}
	.st14{fill:url(#SVGID_15_);}
	.st15{fill:url(#SVGID_16_);}
	.st16{fill:url(#SVGID_17_);}
	.st17{fill:url(#SVGID_18_);}
	.st18{fill:url(#SVGID_19_);}
	.st19{fill:url(#SVGID_20_);}
	.st20{fill:url(#SVGID_21_);}
	.st21{fill:url(#SVGID_22_);}
	.st22{fill:url(#SVGID_23_);}
	.st23{fill:url(#SVGID_24_);}
	.st24{fill:url(#SVGID_25_);}
	.st25{fill:url(#SVGID_26_);}
</style>
<g id="Background">
</g>
<g id="Layer_3">
</g>
<g id="Layer_2">
	
		<linearGradient id="SVGID_1_" gradientUnits="userSpaceOnUse" x1="-1607.0366" y1="-1380.8455" x2="826.6465" y2="954.4734" gradientTransform="matrix(-1 0 0 1 512.0209 0)">
		<stop  offset="0" style="stop-color:#733B08"/>
		<stop  offset="0.2472" style="stop-color:#E1AD52"/>
		<stop  offset="0.3371" style="stop-color:#FBD58C"/>
		<stop  offset="0.5169" style="stop-color:#AC6F0E"/>
		<stop  offset="0.6292" style="stop-color:#E1AD52"/>
		<stop  offset="0.6966" style="stop-color:#FBD58C"/>
		<stop  offset="0.9719" style="stop-color:#6C3802"/>
		<stop  offset="1" style="stop-color:#6C3802"/>
	</linearGradient>
	<path class="st0" d="M7.7,435.1c11.6-4.6,22.9-9.9,33.9-15.7c2.9,0.7,5.8,1.6,7.9,3.5c-11.8,6.3-22.1,14.9-29.9,26.9
		c-1.7,2.6,2.4,4.9,4.1,2.4c29.8-46,94.8-38,146.8-52c45.7-12.3,43.8-34.9,75.2-27.8c14.5,3.3,69.2,23.4,95.4,27.9
		c21.8,3.8,33.2,0.7,46-1.1c118.3-16.1,115,16.9,119.8,8c1.8-3.3-7.9-10.2-18.2-19.9c-100.2-93.8-61.9-65.5-167.5-77.5
		c-82.6-9.4-106.3-37-153.1-32c-33.6,3.5-57.7,23.5-77.8,49.3c-32.6,41.7-53.8,59-68.8,89.8c-1.3,2.7,2.7,5.1,4.1,2.4
		c4.6-9.5,9.9-17.6,16.2-26.2c-0.6,3.3-0.8,11.1-2.5,22.1c-10.7,5.6-21.6,10.7-32.8,15.2C3.7,431.6,4.9,436.2,7.7,435.1z M74,354.7
		c-4.5,13.1,0,24.2-4.6,43.3c-4.3,2.7-8.4,5.2-14.5,8.7c4.4-16.2,2.2-26.4,5.6-36.5C65,365,69.5,359.9,74,354.7z M87.8,338.2
		c-5.1,15.7-0.5,32.5-5.5,48.4c-1.5,4.9-0.5,3.6-11,10.2c4.2-18.7-0.9-33.5,6.3-46.3C81,346.6,83.2,343.9,87.8,338.2z M99.9,323.3
		c-4,14.8,0.6,39.2-4.7,58.1c-4,2.6-8,5.2-12.1,7.8c4.1-11.1,3.2-21.6,3.6-33.4C87.4,336.7,91.2,333.6,99.9,323.3z M111.9,310.3
		c-7.2,17.2,1.9,31.9-5.7,64c-3.1,2-6.1,3.9-9.2,5.9c5.1-20.4-0.4-47.3,5.6-60.1C105.7,316.6,108.7,313.4,111.9,310.3z M125.3,299.1
		c-8.6,18.6,0.8,31.1-10.2,69.6c-12.8,8-3.8,7.3-3.9-22.7c-0.1-12.3-2.9-27.4,4.3-38.9C120.5,302.4,125.3,299,125.3,299.1z
		 M164.1,283.3c-21.4,15.8-13.2,44.5-30.8,74.4c-0.1,0.2-5,2.9-16.3,9.8c9.9-34.5,1.7-50,9.5-67.4
		C130.1,292.3,153.3,285,164.1,283.3z M183.6,282.2c-18,12.1-17.1,46.5-31.2,65.4c-24.3,11.8-16.3,13.5-9.4-6.9
		c6.2-18.3,5.1-46.8,24.9-58C173,282.1,178.3,282,183.6,282.2z M202.6,284.8c-19.6,12.7-21.1,39.8-36.5,56.7
		c-3.7,1.5-7.4,3.1-11,4.8c12.6-19.3,13-54.8,31.1-63.9C191.2,282.8,196.2,283.4,202.6,284.8z M221.1,289.9
		c-28.3,14.7-23.1,39.1-38.9,46c-2.8,1.2-5,1.5-12.9,4.5c12-15,19.4-48.1,35.6-55C210.3,286.5,215.7,288.1,221.1,289.9z
		 M238.7,295.9c-8.5,4.4-28.8,28.4-31.6,31.2c-6.5,6.6-9,5.2-20.3,7.8c13-10.1,9.1-31.1,36.5-44.3
		C228.4,292.3,233.5,294.1,238.7,295.9z M254.9,301.5c-18.5,4.5-15,19.9-34.9,30c-5.6-0.1-11.1,0.1-16.6,0.6
		c7.4-4.6,13.2-15.6,31.1-31.2C241.5,294.9,238.7,296.3,254.9,301.5z M269.8,307.1c-11.4,5.4-14.7,16.8-34.5,25.6
		c-4.3-0.5-8-0.9-12.3-1.1c18.4-10.8,16.1-26.9,35-29.1C273.8,307.5,272.9,305.7,269.8,307.1z M286.3,311.7
		c-12.3,5.3-16.5,17.6-34.3,23.5c-4.6-0.8-9.1-1.5-13.7-2.1c20.2-9.8,23.4-23.1,36.4-26C294.5,311.8,292,309.2,286.3,311.7z
		 M311,313.5c-15.9,6.6-15.5,21.4-40,25.6c-21-4.7-17.7-1.6-9.5-6.4c10-5.8,16.7-16.1,26-19.8C294.5,310.1,295.3,311.5,311,313.5z
		 M351.5,318c-56.1,33.2-0.4,39.3-76.8,21.9c24.2-6,20.8-19.3,39.7-26C352.2,318.5,354.1,316.5,351.5,318z M365.2,318.3
		c-9,6.3-18.9,20.4-29,28.5c-7.7,6.2-8.9,5-16,3.6c3.4-3.8,5.7-8.1,8.7-12.1c7.7-10.7,25.4-20,27-20.5
		C358.9,317.9,362,318.1,365.2,318.3z M374.4,321.5c-10.7,7.1-18,17.9-26.4,27c-6.1,6.6-4.8,6-17.7,3.8
		c12.9-5.8,27.5-28.6,37.5-33.9C382.7,319.1,380.2,317.7,374.4,321.5z M398.4,320.5c-22.4,3-37.4,30.1-46.9,34.6
		c-0.9-0.1-2.5-0.2-7.4-0.8c9.1-6.3,20.8-28.3,38.4-35.3C387.8,319.2,393.2,319.5,398.4,320.5z M418.7,329.9
		c-14.6,0.8-17.9,9.6-31.8,14.9c-7.1,2.7-14.9,4.9-20,10.9c-4.2,0-8.4-0.1-12.7-0.4c2.1-1.5,2.4-2,15.8-15.5
		c16.3-16.5,21.4-16.8,33.2-18.2C408.4,323.2,413,325.4,418.7,329.9z M424.7,343c-10.7,1.3-18.9,8.8-31.6,10.3
		c-15.1,1.7,2.9,2.3-24.2,2.4c7.7-7.9,18.3-7.1,31.2-16.5c6.4-4.7,11.7-7.8,20.4-7.7c3.2,2.7,6.3,5.6,9.6,8.6
		C437.9,346.9,434.1,341.8,424.7,343z M445.2,353.6c-2,0.1-4,0.6-6,1.2c-14.3,4.2-24.3-1.1-33.6,5c-19.9-5-24.7-3-10.4-5.3
		c18.2-2.8,21.3-13.9,41.7-8.5C439.7,348.6,442.5,351.1,445.2,353.6z M432,365c-6.1,2.4-0.5,1.5-24.3-4.7c5.5-2.9,12.4-2.2,18.5-2.1
		c11.4,0.2,14.7-3.6,20.7-3.1C461.8,368.8,453.5,356.7,432,365z M461.3,370.6c-5.3-0.4-10-2.7-14.1-1c-6.1,2.4,0.8,3.3-16.5-2.4
		c7.6-2.6,9.5-4.8,25.6-3.4C464.9,371.7,464.8,370.9,461.3,370.6z M445.3,372.3c3.4-2.1,5.1-2,9.4-1.2c9.1,1.8,7.2,0.8,11,1.3
		C494.9,399.4,487.4,387.9,445.3,372.3z M462.2,390.9c-2.6-7.8-8.8-8.7-12.8-12c10.9,4.2,22.2,9.1,32.7,14.6
		C475.8,392.2,468.6,391.4,462.2,390.9z M443.7,390.3c-2.2-5.5-4-9.3-8.8-12.7c-12.2-8.7-15.1-9.7,10.5-0.2c6.8,7,12.1,5.9,15,13.4
		C454.9,390.4,449.3,390.2,443.7,390.3z M428.1,390.5c-5.6-11.2-18.1-11.9-29.6-27.4c8.2,1.8,16.3,4.1,24.4,6.6
		c10,11.1,13.6,6.7,19.2,20.6C426.4,390.4,428.4,391.1,428.1,390.5z M417.8,391.3c-6.7-14.1-24.3-18-32.1-30.7
		c18.5,2.2,4.6,2.7,29.5,19.3c4.4,2.9,8.8,6.1,11.3,10.8C417.4,391.3,417.8,391.4,417.8,391.3z M401.6,384.9
		c-9-6.2-13.5-4.9-29.1-24.6c14.8-0.5,9.5-0.6,15.5,5.9c8.6,9.1,22.1,13.7,28,25.3C402,392.5,413.4,393,401.6,384.9z M391.4,386.7
		c-9.1-7.4-18.8-11.8-27.8-26.1c9.7,0,4.7-2.1,13.6,7.9c14.4,16.2,24.1,14.7,29.4,23.8C394,393.5,401.1,394.6,391.4,386.7z
		 M356.9,397.3c-11.4-20.9-23.4-15.8-45.3-43.9c15.9,3.4,33.8,6.6,50.1,7c11.3,18.6,25.1,22.1,34.5,32.9
		C377.3,395.6,369.1,397.8,356.9,397.3z M295.4,349.8c4.6,1.1,9.2,2.2,13.9,3.2c6.7,8.5,11,14.4,18.6,19.9
		c8.4,6,19.5,10.9,27.2,24.4c-4.5-0.3-8.9-0.8-13.3-1.6C334.8,376.8,313.1,377.6,295.4,349.8z M313.9,387.6
		c-14.4-24.6-27.4-19.8-43.6-43.7c7.6,1.7,15.3,3.5,22.9,5.3c17.6,28.8,39.6,28.7,46.7,46C336.6,394.7,315.3,389.9,313.9,387.6z
		 M292.5,381.8c-6.2-15.1-19.4-13.4-36.7-40.9c4.1,0.8,8.2,1.7,12.3,2.6c17.9,26.8,29.5,19.9,44.2,44.5
		C305.7,385.9,299.1,383.8,292.5,381.8z M272.8,375.5c-4.3-14.3-17.9-17.7-30.4-37.1c3.8,0.6,7.6,1.3,11.3,2
		c18.1,29.2,29.9,26.5,36.8,40.7C284.6,379.3,278.7,377.4,272.8,375.5z M256.5,370.4c-2.8-14.4-18.1-16-31.2-33.9
		c5,0.3,10,0.9,15,1.6c12.4,19.9,25.9,23.5,30.6,36.8C266.1,373.4,261.3,371.9,256.5,370.4z M241.8,366.7
		c-4-14.8-20.8-13.8-36.1-30.1c5.9-0.5,11.7-0.5,17.6-0.2c13.1,18.7,28.3,20.3,31.5,33.5C250.6,368.7,246.2,367.4,241.8,366.7z
		 M190.7,338.8c4.3-0.9,8.7-1.5,13-2c15.5,17.1,31.9,15.9,36.3,29.6c-1.8-0.2-3.6-0.4-5.3-0.4C225.8,354.1,209,359.8,190.7,338.8z
		 M222,368.7c-9.9-13.1-26.9-8.5-44.5-26.3c4.6-1.5,8.1-2.4,11.5-3.2c0.9,1.2,4.5,5.1,8.4,8.2c15.7,12.5,28.1,10.1,35.4,18.8
		C229.1,366.4,225.8,367.1,222,368.7z M207.4,377.2c-7.6-7.9-40.8,4.6-70.8-15.8c4.5-2.6,37.6-20.1,39.2-18.4
		c17.8,18.4,35.1,14.1,44.6,26.3C215.9,371.4,211.6,374.3,207.4,377.2z M181.9,391.5c-4.3-7.7-13.2-10.2-21.8-12.5
		c-19.5-5.3-18.8,4.6-39.6-8.1c3.3-2,6.7-4.1,10-6c8-4.7,0.9-2.3,17.8,4.5c27.7,11.1,52,3.1,57.8,8.7
		C200,382.5,193.8,387,181.9,391.5z M158.2,398.2c-14.2-20-38.9-14.5-49.3-20c3.3-2.1,6.7-4.2,10-6.3c18.9,11.7,21.8,6,33.2,7.2
		c7.1,0.8,23.7,4.9,28.2,13C173.2,394.7,165.7,396.6,158.2,398.2z M101.4,383.1c2-1.3,4-2.6,6.1-3.9c10.5,6.2,35.1,0.6,49.1,19.4
		c-0.9,0.2-8.1,1.6-8.2,1.5C130.5,381.6,119.8,396.1,101.4,383.1z M93.2,388.4c10.8-7,3.5-4.1,15.9,0.8c10.4,4.1,23-2.6,37.3,11.3
		c-5.8,1-11.7,1.9-17.5,2.7C120.4,391.9,103.8,395.7,93.2,388.4z M84.6,393.9c10.1-6.5,4.8-4.6,13.2-1.5c9.7,3.6,22.2,2.7,29.3,10.9
		c-4.4,0.6-8.8,1.2-13.2,1.9C105,395.6,92.6,398.7,84.6,393.9z M82.9,410.8c-21.1-8.5-34,6,0.2-16c8.1,5.3,19.9,2.3,28.8,10.7
		C102.1,407,92.8,408.5,82.9,410.8z M64.4,416.3c-5.5-2.6-8.3-1.7-11.7-3c12.6-7.1,4.8-3.4,11.2-3.9c5.5-0.4,10.7,0.1,16.3,2
		C74.9,412.8,69.5,414.4,64.4,416.3z M43.7,418.3c9.9-5.3,4.5-3.9,14.2-2.3c7.8,1.2,3.8,0.7-6.8,6.2C49,420.2,46.4,419.1,43.7,418.3
		z M41.1,413.9c3.9-27.2-2.3-18.4,17-40.8c-2.3,10.3-0.5,18.7-5.1,34.8C39.1,415.7,41,414.4,41.1,413.9z"/>
	
		<linearGradient id="SVGID_2_" gradientUnits="userSpaceOnUse" x1="-1407.4911" y1="-1588.8016" x2="1026.1879" y2="746.5133" gradientTransform="matrix(-1 0 0 1 512.0209 0)">
		<stop  offset="0" style="stop-color:#733B08"/>
		<stop  offset="0.2472" style="stop-color:#E1AD52"/>
		<stop  offset="0.3371" style="stop-color:#FBD58C"/>
		<stop  offset="0.5169" style="stop-color:#AC6F0E"/>
		<stop  offset="0.6292" style="stop-color:#E1AD52"/>
		<stop  offset="0.6966" style="stop-color:#FBD58C"/>
		<stop  offset="0.9719" style="stop-color:#6C3802"/>
		<stop  offset="1" style="stop-color:#6C3802"/>
	</linearGradient>
	<path class="st1" d="M126,146.3c0.2-4.4,1.6-90.1-5.4-92.9C111,27.1,93.1,21.7,70.8,65.7C58.8,89.6,57.1,105,54.2,133
		c-5.8,55.6-67.8,136.8-35,214.8c0.6,1.5,1.9,2.1,3.5,1.4c0.5,0.9,1.4,1.3,2.1,1.2c3.8-0.3,2.9-3,14-26.7
		c-0.5,1.1,12.6-5.4,20.6-7.3c-10.1,9.4-20.6,18.4-28.9,29.6c-1.8,2.5,2.3,4.8,4.1,2.4c17.1-23.1,38.5-31.4,56.2-63.4
		c16.3-29.4,14.1-45.9,18.6-65.2C115.1,194.9,124.5,183,126,146.3z M120.8,155.9c-16,5.1-25.3,34.1-33.7,37.5
		c3.1-21.4-1.5-4.6,9.4-19.4c5.5-7.5,16-30.1,25.1-31.2C121.4,147.2,121.2,151.6,120.8,155.9z M120.6,157.6
		c-1.6,15.9-1.3,10.2-7.4,16.6c-9.3,9.7-11.1,21.6-28.6,33.4c0.8-4.2,1.6-8.3,2.2-12.5C96.6,192.4,105.3,163.3,120.6,157.6z
		 M98.3,224c-13,12.7-18.5,24.5-25.8,24.8c21-55.7,1.9-28.7,20.6-45.8c12.9-11.8,15.2-24.1,25.4-31.3c-2.5,12.4-6.8,23.2-10.5,35.3
		C102.1,226.1,107.9,214.7,98.3,224z M102.3,233.8c-9.3,0.6-19.6,23.1-34.7,27.4c1.5-3.6,2.9-7.2,4.3-10.8
		c9.9,0.5,20.5-21.4,32.3-29.2C103.3,225.8,102.9,228.9,102.3,233.8z M99.1,251.4c-13.9,6.6-23.3,23.8-36,20.4
		c1.3-2.9,2.5-5.8,3.8-8.8c16.1-3.7,26.8-26.7,35.3-27.7C101.4,240.4,100.7,244.8,99.1,251.4z M93.7,268.1
		c-9.1-0.4-21.5,16.1-35.8,15.1c1.5-3.3,3-6.6,4.5-9.9c12.4,3.6,18.5-8.6,36.1-19.8C97.2,258.4,95.6,263.3,93.7,268.1z M86.9,282.6
		c-5.8,1.1-10.3,4.8-15.8,6.3c-5.9,1.6-11.8,1.1-17.6,3.8c1.3-2.7,2.3-4.9,3.8-8.1c15,1.4,27.3-14.6,35.9-15
		C91.3,274.1,89.2,278.4,86.9,282.6z M80.2,293.4c-7.1-3.8-18.8,4.5-30.4,7.1c2.7-5.7,2-5.5,5.6-6.9c5.7-2.1,12-1.7,17.8-3.7
		c4.3-1.5,8.3-4.4,12.7-5.5C84.2,287.5,82.2,290.5,80.2,293.4z M59.9,304c-4.8,1.8-9.4,4.6-14.5,5.5c1.2-2.5,2.3-4.9,3.5-7.4
		c11.9-2.3,23.6-10.6,30.3-7.5C68.5,309.6,75.3,298.2,59.9,304z M44.6,311.3c9.4-1.3,17.8-9.3,26.8-7c-14.1,15.6-6.5,6.5-28.3,16.2
		C38.3,322.7,38.7,323.8,44.6,311.3z M20.3,254.8c7.6,14.8,21.8,26.4,25.2,42.7c0.2,1.1,1.3-2-9.6,21.2c-15.3,32.6-6,15.1-11.4,22.5
		c-1.1,0.3-1.4,1.1-1.6,2C22.2,344,6.8,309.5,20.3,254.8z M25.3,237.2c7.9,21.6,21.1,29.6,27.6,45.6c-3.2,6.9-5,10.7-6.1,13
		c-4.7-17.4-18.6-27.9-25.9-43.3C22.2,247.4,23.7,242.3,25.3,237.2z M30.5,221.7c8.8,5,13.6,34.1,26.1,53c-3.9,8.6-1.6,7.2-6.5-0.7
		c-7.9-12.6-17.6-20.3-24-39.2C27.5,230.4,29,226,30.5,221.7z M35.9,207.3c5.9,15.2,11.8,23.1,17.2,31.1c13.4,20,8.9,24.1,4.2,34.5
		c-12.2-19.3-16.6-47.5-26.3-52.8C32.6,215.9,34.3,211.6,35.9,207.3z M44.6,202.4c7.6,20,20.2,29.2,23.5,44.7
		c-1.4,3.8-2.9,7.5-4.4,11.2c-2.4-17.4-16.3-24.5-26.9-53.1c1.6-4,3.2-8,4.8-11.9C41.7,193,42.5,196.9,44.6,202.4z M46.3,181.6
		c5.7,18.7,21.7,32.2,26.9,51c-1.3,4.1-2.6,7.8-4.1,11.8c-5.1-18.2-19.9-25.6-26.4-53.8C43.9,187.6,45.1,184.6,46.3,181.6z
		 M49.3,173.5c6.5,16,20.1,30.1,27.7,46c-0.9,3.5-1.9,7-3,10.4c-6.1-18.6-22-32.1-26.8-50.8C47.9,177.2,48.6,175.4,49.3,173.5z
		 M69.7,188.4c4.5,4.5,8.2,9.6,10.9,15.4c-0.9,4.5-1.8,8.9-3,13.4c-7.7-15.5-22.4-31.3-27.4-45.9c1.2-3.5,2.4-6.9,3.4-10.4
		C60.9,178,61.3,179.9,69.7,188.4z M59.2,153.9c9.2,21.3,19.3,21.5,24,32.3c-0.6,5-1.3,9.9-2.2,14.8c-6-12-13.1-14.7-18.1-23.4
		c-2.2-3.9-3.8-7.8-8.7-19.2C57.9,145,55.4,144.9,59.2,153.9z M61.4,111.8c6.6,11.2,20,18.4,24.7,30.4c-0.5,13.5-1.1,28.6-2.5,41.2
		c-7.4-12.5-15.1-8.1-26.4-38.9C59.1,133.2,59.7,123.6,61.4,111.8z M64.4,96.1c7.1,20.1,19.6,22.2,22.2,31c-0.6,15.5,0.6,12.5-2.7,8
		c-6.6-9.3-17.2-15.9-22.1-25.8C62.5,104.8,63.3,100.4,64.4,96.1z M71.3,75.7c2.3,12.3,9.2,22.9,16.2,33.4
		c-0.3,4.8-0.5,9.7-0.7,14.5c-4.4-7.3-16-11.3-21.7-30.4C66.6,87.5,68.2,82.5,71.3,75.7z M88.6,92.3c-0.4,4.6-0.7,9.3-1,13.9
		c0,0.5-13-17.5-15.1-33C80.3,56.4,70.7,71.3,88.6,92.3z M98.4,38.6c-5.2,16.7-8,34.1-9.6,51.5c-6.1-7.6-10.1-16.8-11.5-26.4
		C81.6,55.6,89.6,41.2,98.4,38.6z M106.7,53.1c-4.8,9.6-9.4,25.9-12.6,31c1.7-15.4,4.5-30.7,9.2-45.6c2.1,0.6,4.3,2.1,6.4,4.7
		C112.4,46.5,111.4,43.7,106.7,53.1z M116.4,54.9c-7,6.3-19.6,41.8-23.2,47.1c-0.7,1.1-1.3,3.7,0.7-15.2c5.6-5.3,9.1-26.7,18.4-40.2
		C113.9,49.3,115.3,52.1,116.4,54.9z M121.3,104.5c-18.2,10.6-19.4,30.4-30.5,37.4c1.9-53.7-0.2-26.2,8.5-49.1
		c6.6-17.4,15.4-33.9,17.7-36.3C122.2,71.6,121.2,89.3,121.3,104.5z M114.9,121.8c-7.3,8.3-20.6,38-24.9,40.7
		c1.9-35.3-1.7-5.6,13.2-34.2c4.5-8.7,9.7-16.7,18.2-22C121.5,122.9,122.8,112.9,114.9,121.8z M121.6,141.3
		c-12.9,1.3-23.6,33.8-32.9,38.4c0.5-5.4,0.8-9.9,1.1-15.4c7.5-3.3,19.8-39.9,31.7-45.8C121.7,126.1,121.8,133.7,121.6,141.3z"/>
</g>
</svg>
