<?xml version="1.0" encoding="utf-8"?>
<!-- Generator: Adobe Illustrator 25.1.0, SVG Export Plug-In . SVG Version: 6.00 Build 0)  -->
<svg version="1.1" id="Layer_1" xmlns="http://www.w3.org/2000/svg" xmlns:xlink="http://www.w3.org/1999/xlink" x="0px" y="0px"
	 viewBox="0 0 1499.8 1518.4" style="enable-background:new 0 0 1499.8 1518.4;" xml:space="preserve">
<style type="text/css">
	.st0{fill-rule:evenodd;clip-rule:evenodd;fill:#184A55;}
	.st1{fill:#D7CAAC;}
</style>
<path class="st1" d="M96,0.2h4.6l35.1,60.9l17.7-30.8L146,0.2h4.3l6,25.2l14.5-25.2h4.6l-17.7,30.5l25.9,104.9V0.2h3.9v135.3
	l25.9-104.9L195.9,0.2h4.3l14.5,25.2l6.4-25.2h3.9l-7.4,30.1l18.1,30.8l35.1-60.9h4.6L237.7,65l42.5,73.7
	c10.6-3.9,19.8-11,26.6-19.8c6.7-9.2,10.6-20.6,10.6-32.6v-1.4l1.1-0.4c8.1-4.6,17.4-7.8,26.2-10.3c8.9-2.1,17.4-3.2,26.2-3.2V0.2
	l0,0h3.9V71c8.9,0,17.7,1.1,26.2,3.2c9.2,2.5,18.1,5.7,26.6,10.3l1.1,0.4v1.4c0,12,3.9,23.4,10.6,32.6c6.7,8.9,15.6,15.9,26.6,19.8
	L508.4,65L470.9,0.2h4.6l35.1,60.9l18.1-30.8l-7.4-30.1h3.9l6.4,25.2L546,0.2h4.3l-17.7,30.5l26.2,104.9V0.2h3.9v135.3l25.9-104.9
	L570.8,0.2h4.6l14.5,25.2l6-25.2h3.9l-7.1,30.1l17.7,30.8l35.1-60.9h4.6L612.6,65l42.5,73.7c11-3.9,20.2-11,26.6-19.8
	c6.7-9.2,10.6-20.6,10.6-32.6v-1.4l1.1-0.4c8.5-4.6,17.4-7.8,26.6-10.3c8.5-2.1,17.4-3.2,26.2-3.2V0.2l0,0h3.9V71
	c8.9,0,17.7,1.1,26.2,3.2c9.2,2.5,18.1,5.7,26.6,10.3l1.1,0.4v1.4c0,12,3.9,23.4,10.6,32.6c6.4,8.9,15.6,15.9,26.2,19.8L883.3,65
	L846.1,0.2h4.3l35.4,60.9l17.7-30.8l-7.4-30.1h3.9l6.4,25.2l14.5-25.2h4.6l-17.7,30.5l25.9,104.9V0.2h3.9v135.3l25.9-104.9
	L945.7,0.2h4.6l14.5,25.2l6-25.2h4.3l-7.4,30.1l17.7,30.8l35.4-60.9h4.3L987.8,65l42.2,73.7c11-3.9,20.2-11,26.6-19.8
	c6.7-9.2,10.6-20.6,10.6-32.6v-1.4l1.1-0.4c8.5-4.6,17.4-7.8,26.6-10.3c8.5-2.1,17.4-3.2,26.2-3.2V0.2l0,0h3.9V71
	c8.9,0,17.7,1.1,26.2,3.2c9.2,2.5,18.1,5.7,26.6,10.3l1.1,0.4v1.4c0,12,3.9,23.4,10.6,32.6c6.4,8.9,15.6,15.9,26.6,19.8l42.5-73.7
	L1221,0.2h4.6l35.1,60.9l17.7-30.8l-7.4-30.1h4.3l6,25.2l14.5-25.2h4.6l-17.7,30.5l25.9,104.9V0.2h3.9v135.3l25.9-104.9l-17.4-30.5
	h4.3l14.5,25.2l6.4-25.2h3.9l-7.4,30.1l18.1,30.8l35.1-60.9h4.6L1362.7,65l42.5,73.7c10.6-3.9,19.8-11,26.6-19.8
	c6.7-9.2,10.6-20.6,10.6-32.6v-1.4l1.1-0.4c8.1-4.6,17.4-7.8,26.2-10.3c8.9-2.1,17.4-3.2,26.2-3.2V0.2l0,0h3.9V71v3.9v19.1v35.8v7.8
	v149.5v16.7v70.9v3.9v19.1v35.8v7.8v149.5v16.7v70.9v3.9v19.1v35.8v7.8v149.5v16.7V982v3.9v19.1v35.8v7.8v149.5v16.7v70.9v3.9v19.1
	v35.8v7.8v149.9v16.3h-3.9l-44.3-77.2l3.2-1.8l37.9,65.5l-25.5-102.8l-17,29.4l4.6,7.8l-3.2,1.8l-3.5-5.7l-41.1,70.9h0.4l-1.4,2.1
	l-5.7,9.9h-4.6l5.7-9.9c-11.3-4.3-20.9-11.3-27.6-20.9c-5-6.7-8.5-14.9-10.3-23.4l-13.5,54.2h-3.9l15.9-64.8
	c-7.8-3.9-15.9-7.1-24.1-9.2c-8.5-1.8-17-2.8-25.5-3.2v19.1v36.1l12.8,22h-4.3l-8.5-14.2v14.2h-3.9v-14.2l-8.1,14.2h-4.6l12.8-22
	v-36.1v-19.1c-8.5,0.4-17,1.4-25.2,3.2c-8.5,2.1-16.7,5.3-24.4,9.2l16.3,64.8h-4.3l-13.5-54.2c-1.4,8.5-5,16.7-10.3,23.4
	c-6.7,9.6-16.3,16.7-27.6,20.9l6,9.9h-4.6l-6-9.9l-42.2-73l-3.2,5.7l-1.8-0.7l1.8,0.7l-44.6,77.2h-3.9l-44.6-77.2l3.5-1.8l37.9,65.5
	l-25.5-102.8l-17,29.4l4.6,7.8l-3.5,1.8l-3.2-5.7l-41.1,70.9l0,0l-1.1,2.1l-6,9.9h-4.3l5.7-9.9c-11.3-4.3-20.9-11.3-27.6-20.9
	c-5-6.7-8.5-14.9-10.3-23.4l-13.5,54.2h-4.3l16.3-64.8c-7.8-3.9-15.9-7.1-24.4-9.2c-8.1-1.8-16.7-2.8-25.2-3.2v19.1v36.1l12.8,22
	h-4.6l-8.1-14.2v14.2h-3.9v-14.2l-8.1,14.2h-4.6l12.8-22v-36.1v-19.1c-8.5,0.4-17,1.4-25.2,3.2c-8.5,2.1-16.7,5.3-24.4,9.2
	l15.9,64.8h-3.9l-13.5-54.2c-1.8,8.5-5.3,16.7-10.3,23.4c-6.7,9.6-16.3,16.7-27.6,20.9l5.7,9.9h-4.3l-6-9.9l-42.2-73l-3.2,5.7
	l-1.8-0.7l1.8,0.7l-44.6,77.2h-3.9l-44.6-77.2l3.5-1.8L743,1505l-25.5-102.8l-17,29.4l4.6,7.8l-3.5,1.8l-3.5-5.7l-40.7,70.9l0,0
	l-1.4,2.1l-5.7,9.9h-4.6l6-9.9c-11.3-4.3-20.9-11.3-27.6-20.9c-5.3-6.7-8.9-14.9-10.6-23.4l-13.5,54.2H596l15.9-64.8
	c-7.4-3.9-15.6-7.1-24.1-9.2c-8.1-1.8-16.7-2.8-25.2-3.2v19.1v36.1l12.8,22h-4.6l-8.1-14.2v14.2h-3.9v-14.2l-8.5,14.2H546l12.8-22
	v-36.1v-19.1c-8.9,0.4-17.4,1.4-25.5,3.2c-8.1,2.1-16.3,5.3-24.1,9.2l15.9,64.8h-3.9l-13.5-54.2c-1.8,8.5-5.3,16.7-10.3,23.4
	c-7.1,9.6-16.3,16.7-27.6,20.9l5.7,9.9h-4.6l-5.7-9.9l-42.2-73l-3.5,5.7l-1.8-0.7l1.8,0.7l-44.6,77.2H371l-44.3-77.2l3.2-1.8
	l37.9,65.5l-25.5-102.8l-17,29.4l4.6,7.8l-3.2,1.8l-3.5-5.7l-41.1,70.9h0.4l-1.4,2.1l-5.7,9.9h-4.6l5.7-9.9
	c-11.3-4.3-20.9-11.3-27.6-20.9c-5-6.7-8.5-14.9-10.3-23.4l-13.5,54.2h-3.9l15.9-64.8c-7.8-3.9-15.9-7.1-24.1-9.2
	c-8.5-1.8-17-2.8-25.5-3.2v19.1v36.1l12.8,22h-4.3l-8.5-14.2v14.2h-3.9v-14.2l-8.1,14.2h-4.6l12.8-22v-36.1v-19.1
	c-8.5,0.4-17,1.4-25.2,3.2c-8.5,2.1-16.7,5.3-24.4,9.2l16.3,64.8H146l-13.5-54.2c-1.4,8.5-5,16.7-10.3,23.4
	c-6.7,9.6-16.3,16.7-27.6,20.9l6,9.9H96l-6-9.9l-42.2-73l-3.2,5.7l-1.8-0.7l1.8,0.7L0,1518.4v-16.3l25.9-104.9l-25.9-45v-7.8
	l27.3,47.5l22.3-90.4c-7.8-3.9-15.9-6.7-24.4-8.9c-8.1-2.1-16.7-3.2-25.2-3.2v-3.9c8.9,0,17.7,1.1,26.2,3.2
	c9.2,2.5,18.1,5.7,26.6,10.3l1.1,0.4v1.4c0,12,3.9,23.4,10.6,32.6c6.4,8.9,15.6,15.9,26.6,19.8l42.5-73.7L90,1204.9l-42.2-73
	l-3.2,5.7l-1.8-0.7l1.8,0.7L0,1214.8v-16.7l25.9-104.5l-25.9-45v-7.8l27.3,47.5l22.3-90.4c-7.8-3.9-15.9-6.7-24.4-8.9
	C17,987,8.5,985.9,0,985.9V982c8.9,0,17.7,1.1,26.2,3.2c9.2,2.5,18.1,5.7,26.6,10.3l1.1,0.4v1.4c0,12,3.9,23.4,10.6,32.6
	c6.4,8.9,15.6,15.9,26.6,19.8l42.5-73.7L90,901.2l-42.2-73l-3.2,5.7l-1.8-0.7l1.8,0.7L0,911.1v-16.7L25.9,790L0,745v-7.8l27.3,47.5
	l22.3-90.4c-7.8-3.9-15.9-6.7-24.4-8.9c-8.1-2.1-16.7-3.2-25.2-3.2v-3.9c8.9,0,17.7,1.1,26.2,3.2c9.2,2.5,18.1,5.7,26.6,10.3
	l1.1,0.4v1.4c0,12,3.9,23.4,10.6,32.6C70.9,735,80.1,742.1,91,746l42.5-73.7L90,597.6l-42.2-73l-3.2,5.7l-1.8-0.7l1.8,0.7L0,607.5
	v-16.7l25.9-104.5L0,441.3v-7.8L27.3,481l22.3-90.4c-7.8-3.9-15.9-6.7-24.4-8.9c-8.1-2.1-16.7-3.2-25.2-3.2v-3.9
	c8.9,0,17.7,1.1,26.2,3.2c9.2,2.5,18.1,5.7,26.6,10.3l1.1,0.4v1.4c0,12,3.9,23.4,10.6,32.6c6.4,8.9,15.6,15.9,26.6,19.8l42.5-73.7
	L90,293.9l-42.2-73l-3.2,5.7l-1.8-0.7l1.8,0.7L0,303.8v-16.7l25.9-104.5L0,137.7v-7.8L27.3,177l22.3-90c-7.8-3.9-15.9-6.7-24.4-8.9
	C17,76,8.5,74.9,0,74.9V71c8.9,0,17.7,1.1,26.2,3.2c9.2,2.5,18.1,5.7,26.6,10.3l1.1,0.4v1.4c0,12,3.9,23.4,10.6,32.6
	c6.4,8.9,15.6,15.9,26.6,19.8L133.6,65L96,0.2z M41.1,528.5l4.6-7.8l-17-29.4L3.2,594L41.1,528.5L41.1,528.5z M47.8,516.8l41.1-71.2
	C77.6,441.7,68,434.2,61.3,425c-5-7.1-8.5-15.2-10.3-23.7l-20.9,84.3L47.8,516.8z M93.5,445.6l-43.2,75.1L92.8,594
	c10.6-3.9,19.8-10.6,26.2-19.5c7.1-9.6,11-20.9,11-33v-1.1l0.7-0.7c8.5-4.3,17.4-7.8,26.6-9.9c8.5-2.1,17.4-3.5,26.2-3.5v-70.5
	l-44.6-77.2l3.5-2.1l37.9,65.9l-25.5-103.1l-17,29.4l4.6,7.8l-3.5,2.1l-3.2-6l-41.1,70.9l0,0L93.5,445.6z M41.1,224.8l4.6-7.8
	l-17-29.4L3.2,290.4L41.1,224.8L41.1,224.8z M47.8,213.1l41.1-71.2C77.6,138,68,130.6,61.3,121.4c-5-7.1-8.5-15.2-10.3-23.7
	L30.1,182L47.8,213.1z M93.5,141.9L50.3,217l42.5,73.3c10.6-3.9,19.8-10.6,26.2-19.5c7.1-9.6,11-20.9,11-33v-1.1l0.7-0.7
	c8.5-4.3,17.4-7.8,26.6-9.9c8.5-2.1,17.4-3.5,26.2-3.5v-70.5l-44.6-77.2l3.5-2.1l37.9,65.9L154.8,35.6l-17,29.4l4.6,7.8l-3.5,2.1
	l-3.2-6l-41.1,70.9l0,0L93.5,141.9z M41.1,832.1l4.6-7.8l-17-29.4L3.2,897.7L41.1,832.1L41.1,832.1z M47.8,820.4l41.1-71.2
	c-11.3-3.9-20.9-11.3-27.6-20.6c-5-7.1-8.5-15.2-10.3-23.7l-20.9,84.3L47.8,820.4z M93.5,749.2l-43.2,75.1l42.5,73.3
	c10.6-3.9,19.8-10.6,26.2-19.5c7.1-9.6,11-20.9,11-33v-1.1l0.7-0.7c8.5-4.3,17.4-7.8,26.6-9.9c8.5-2.1,17.4-3.5,26.2-3.5v-70.5
	l-44.6-77.2l3.5-2.1l37.9,65.9l-25.5-103.1l-17,29.4l4.6,7.8l-3.5,2.1l-3.2-6l-41.1,70.9l0,0L93.5,749.2z M41.1,1135.8l4.6-7.8
	l-17-29.4L3.2,1201.3L41.1,1135.8L41.1,1135.8z M47.8,1124.1l41.1-71.2c-11.3-3.9-20.9-11.3-27.6-20.6c-5-7.1-8.5-15.2-10.3-23.7
	l-20.9,84.3L47.8,1124.1z M93.5,1052.9L50.3,1128l42.5,73.3c10.6-3.9,19.8-10.6,26.2-19.5c7.1-9.6,11-20.9,11-33v-1.1l0.7-0.7
	c8.5-4.3,17.4-7.8,26.6-9.9c8.5-2.1,17.4-3.2,26.2-3.5v-70.5l-44.6-77.2l3.5-2.1l37.9,65.9l-25.5-103.1l-17,29.4l4.6,7.8l-3.5,2.1
	l-3.2-6l-41.1,70.9l0,0L93.5,1052.9z M41.1,1439.4l4.6-7.8l-17-29.4L3.2,1505L41.1,1439.4L41.1,1439.4z M47.8,1427.7l41.1-70.9
	c-11.3-4.3-20.9-11.7-27.6-20.9c-5-7.1-8.5-15.2-10.3-23.7l-20.9,84.3L47.8,1427.7z M93.5,1356.5l-43.2,75.1l42.5,73.3
	c10.6-3.5,19.8-10.6,26.2-19.5c7.1-9.6,11-20.9,11-33v-1.1l0.7-0.7c8.5-4.3,17.4-7.8,26.6-9.9c8.5-2.1,17.4-3.2,26.2-3.5v-70.5
	l-44.6-77.2l3.5-2.1l37.9,65.9l-25.5-103.1l-17,29.4l4.6,7.8l-3.5,2.1l-3.2-6l-41.1,70.9l0,0L93.5,1356.5z M416.3,528.5l4.3-7.8
	l-16.7-29.4L378.4,594L416.3,528.5L416.3,528.5z M423,516.8l40.7-71.2c-11.3-3.9-20.6-11.3-27.6-20.6c-5-7.1-8.5-15.2-10.3-23.7
	L405,485.6L423,516.8z M468.4,445.6l-43.2,75.1l42.5,73.3c11-3.9,19.8-10.6,26.6-19.5c6.7-9.6,10.6-20.9,10.6-33v-1.1l1.1-0.7
	c8.5-4.3,17.4-7.8,26.6-9.9c8.5-2.1,17.4-3.5,26.2-3.5v-70.5l-44.6-77.2l3.2-2.1l37.9,65.9l-25.5-103.1L513,368.7l4.3,7.8l-3.2,2.1
	l-3.5-6l-40.7,70.9l0,0L468.4,445.6z M465.2,597.6l-42.2-73l-3.5,5.7l-1.8-0.7l1.8,0.7l-44.6,77.2v70.9c8.9,0,17.7,1.1,26.2,3.2
	c9.2,2.5,18.1,5.7,26.6,10.3l1.1,0.4v1.4c0,12,3.9,23.4,10.6,32.6c6.7,8.9,15.6,15.9,26.6,19.8l42.5-73.7L465.2,597.6z M371,678.3
	v-70.9l-44.3-77.2l3.2-1.8l37.9,65.5l-25.5-102.8l-17,29.4l4.6,7.8l-3.2,1.8l-3.5-5.7L282,595.4h0.4l-1.4,2.1l-43.2,74.8l42.5,73.7
	c10.6-3.9,19.8-11,26.6-19.8c6.7-9.2,10.6-20.6,10.6-32.6v-1.4l1.1-0.4c8.1-4.6,17.4-7.8,26.2-10.3
	C353.6,679.4,362.1,678.3,371,678.3L371,678.3z M278.5,594l42.5-73.3l-43.2-75.1l0,0l-42.2-73l-3.5,6l-1.8-1.1l1.8,1.1l-44.6,77.2
	v70.5c8.9,0,17.7,1.4,26.2,3.5c9.2,2.1,18.1,5.7,26.6,9.9l1.1,0.7v1.1c0,12,3.9,23.4,10.6,33C258.3,583.4,267.5,590.1,278.5,594
	L278.5,594z M280.3,442.4c10.6-3.9,19.8-11,26.6-19.8c6.7-9.2,10.6-20.6,10.6-32.6v-1.4l1.1-0.4c8.1-4.6,17.4-7.8,26.2-10.3
	c8.9-2.1,17.4-3.2,26.2-3.2v-70.9l-44.3-77.2l3.2-1.8l37.9,65.5l-25.5-102.8l-17,29.4l4.6,7.8l-3.2,1.8l-3.5-5.7L282,291.8h0.4
	l-1.4,2.1l-43.2,74.8L280.3,442.4z M374.9,374.7c8.9,0,17.7,1.1,26.2,3.2c9.2,2.5,18.1,5.7,26.6,10.3l1.1,0.4v1.4
	c0,12,3.9,23.4,10.6,32.6c6.7,8.9,15.6,15.9,26.6,19.8l42.5-73.7l-43.2-74.8l-42.2-73l-3.5,5.7l-1.8-0.7l1.8,0.7l-44.6,77.2V374.7z
	 M424.5,390.6c-7.8-3.9-15.9-6.7-24.1-8.9c-8.1-2.1-16.7-3.2-25.5-3.2v19.1v35.8l27.3,47.5L424.5,390.6z M371,378.6
	c-8.5,0-17,1.1-25.2,3.2c-8.5,2.1-16.7,5-24.1,8.9l22,90l27.3-47.1v-35.8V378.6z M320.3,401.3c-1.8,8.5-5.3,16.7-10.6,23.7
	c-6.7,9.2-16.3,16.7-27.6,20.6l41.1,71.2l18.1-31.2L320.3,401.3z M345.1,486.3L371,590.8V441.3L345.1,486.3z M374.9,590.8
	l26.2-104.5l-26.2-45V590.8z M1166,528.5l4.6-7.8l-17-29.4L1128.1,594L1166,528.5L1166,528.5z M1172.8,516.8l41.1-71.2
	c-11.3-3.9-20.9-11.3-27.6-20.6c-5-7.1-8.5-15.2-10.3-23.7l-20.9,84.3L1172.8,516.8z M1218.5,445.6l-43.2,75.1l42.5,73.3
	c10.6-3.9,19.8-10.6,26.2-19.5c7.1-9.6,11-20.9,11-33v-1.1l0.7-0.7c8.5-4.3,17.4-7.8,26.6-9.9c8.5-2.1,17.4-3.5,26.2-3.5v-70.5
	l-44.6-77.2l3.5-2.1l37.9,65.9l-25.5-103.1l-17,29.4l4.6,7.8l-3.5,2.1l-3.2-6l-41.1,70.9l0,0L1218.5,445.6z M1214.9,597.6l-42.2-73
	l-3.2,5.7l-1.8-0.7l1.8,0.7l-44.6,77.2v70.9c8.9,0,17.7,1.1,26.2,3.2c9.2,2.5,18.1,5.7,26.6,10.3l1.1,0.4v1.4
	c0,12,3.9,23.4,10.6,32.6c6.4,8.9,15.6,15.9,26.6,19.8l42.5-73.7L1214.9,597.6z M1121,678.3v-70.9l-44.6-77.2l3.5-1.8l37.9,65.5
	l-25.5-102.8l-17,29.4l4.6,7.8l-3.5,1.8l-3.2-5.7l-41.1,70.9l0,0l-1.1,2.1l-43.2,74.8L1030,746c11-3.9,20.2-11,26.6-19.8
	c6.7-9.2,10.6-20.6,10.6-32.6v-1.4l1.1-0.4c8.5-4.6,17.4-7.8,26.6-10.3C1103.3,679.4,1112.2,678.3,1121,678.3L1121,678.3z
	 M1028.2,594l42.5-73.3l-43.2-75.1l0,0l-42.2-73l-3.2,6l-1.8-1.1l1.8,1.1l-44.6,77.2v70.5c8.9,0,17.7,1.4,26.2,3.5
	c9.2,2.1,18.1,5.7,26.6,9.9l1.1,0.7v1.1c0,12,3.9,23.4,10.6,33C1008.4,583.4,1017.6,590.1,1028.2,594L1028.2,594z M1030,442.4
	c11-3.9,20.2-11,26.6-19.8c6.7-9.2,10.6-20.6,10.6-32.6v-1.4l1.1-0.4c8.5-4.6,17.4-7.8,26.6-10.3c8.5-2.1,17.4-3.2,26.2-3.2v-70.9
	l-44.6-77.2l3.5-1.8l37.9,65.5l-25.5-102.8l-17,29.4l4.6,7.8l-3.5,1.8l-3.2-5.7l-41.1,70.9l0,0l-1.1,2.1l-43.2,74.8L1030,442.4z
	 M1124.9,374.7c8.9,0,17.7,1.1,26.2,3.2c9.2,2.5,18.1,5.7,26.6,10.3l1.1,0.4v1.4c0,12,3.9,23.4,10.6,32.6
	c6.4,8.9,15.6,15.9,26.6,19.8l42.5-73.7l-43.6-74.8l-42.2-73l-3.2,5.7l-1.8-0.7l1.8,0.7l-44.6,77.2V374.7z M1174.6,390.6
	c-7.8-3.9-15.9-6.7-24.4-8.9c-8.1-2.1-16.7-3.2-25.2-3.2v19.1v35.8l27.3,47.5L1174.6,390.6z M1121,378.6c-8.5,0-17,1.1-25.2,3.2
	c-8.5,2.1-16.7,5-24.4,8.9l22.3,90l27.3-47.1v-35.8V378.6z M1070,401.3c-1.8,8.5-5.3,16.7-10.3,23.7c-6.7,9.2-16.3,16.7-27.6,20.6
	l41.1,71.2l17.7-31.2L1070,401.3z M1095.2,486.3l25.9,104.5V441.3L1095.2,486.3z M1124.9,590.8l25.9-104.5l-25.9-45V590.8z
	 M416.3,224.8l4.3-7.8l-16.7-29.4l-25.5,102.8L416.3,224.8L416.3,224.8z M423,213.1l40.7-71.2c-11.3-3.9-20.6-11.3-27.6-20.6
	c-5-7.1-8.5-15.2-10.3-23.7L405,182L423,213.1z M468.4,141.9L425.2,217l42.5,73.3c11-3.9,19.8-10.6,26.6-19.5
	c6.7-9.6,10.6-20.9,10.6-33v-1.1l1.1-0.7c8.5-4.3,17.4-7.8,26.6-9.9c8.5-2.1,17.4-3.5,26.2-3.5v-70.5l-44.6-77.2l3.2-2.1l37.9,65.9
	L529.7,35.6L513,65l4.3,7.8l-3.2,2.1l-3.5-6l-40.7,70.9l0,0L468.4,141.9z M278.5,290.4L321,217l-43.2-75.1l0,0l-42.2-73l-3.5,6
	l-1.8-1.1l1.8,1.1l-44.6,77.2v70.5c8.9,0,17.7,1.4,26.2,3.5c9.2,2.1,18.1,5.7,26.6,9.9l1.1,0.7v1.1c0,12,3.9,23.4,10.6,33
	C258.3,279.7,267.5,286.5,278.5,290.4L278.5,290.4z M424.5,87c-7.8-3.9-15.9-6.7-24.1-8.9c-8.1-2.1-16.7-3.2-25.5-3.2v19.1v35.8
	l27.3,47.1L424.5,87z M371,74.9c-8.5,0-17,1.1-25.2,3.2c-8.5,2.1-16.7,5-24.1,8.9l22,90l27.3-47.1V94.1V74.9z M320.3,97.6
	c-1.8,8.5-5.3,16.7-10.6,23.7c-6.7,9.2-16.3,16.7-27.6,20.6l41.1,71.2l18.1-31.2L320.3,97.6z M345.1,182.7L371,287.2V137.7
	L345.1,182.7z M374.9,287.2l26.2-104.5l-26.2-45V287.2z M416.3,832.1l4.3-7.8l-16.7-29.4l-25.5,102.8L416.3,832.1L416.3,832.1z
	 M423,820.4l40.7-71.2c-11.3-3.9-20.6-11.3-27.6-20.6c-5-7.1-8.5-15.2-10.3-23.7L405,789.2L423,820.4z M468.4,749.2l-43.2,75.1
	l42.5,73.3c11-3.9,19.8-10.6,26.6-19.5c6.7-9.6,10.6-20.9,10.6-33v-1.1l1.1-0.7c8.5-4.3,17.4-7.8,26.6-9.9
	c8.5-2.1,17.4-3.5,26.2-3.5v-70.5l-44.6-77.2l3.2-2.1l37.9,65.9l-25.5-103.1L513,672.3l4.3,7.8l-3.2,2.1l-3.5-6l-40.7,70.9l0,0
	L468.4,749.2z M465.2,901.2l-42.2-73l-3.5,5.7l-1.8-0.7l1.8,0.7l-44.6,77.2V982c8.9,0,17.7,1.1,26.2,3.2c9.2,2.5,18.1,5.7,26.6,10.3
	l1.1,0.4v1.4c0,12,3.9,23.4,10.6,32.6c6.7,8.9,15.6,15.9,26.6,19.8l42.5-73.7L465.2,901.2z M371,982v-70.9l-44.3-77.2l3.2-1.8
	l37.9,65.5l-25.5-102.8l-17,29.4l4.6,7.8l-3.2,1.8l-3.5-5.7L282,899.1h0.4l-1.4,2.1L237.7,976l42.5,73.7c10.6-3.9,19.8-11,26.6-19.8
	c6.7-9.2,10.6-20.6,10.6-32.6v-1.4l1.1-0.4c8.1-4.6,17.4-7.8,26.2-10.3C353.6,983.1,362.1,982,371,982L371,982z M278.5,897.7
	l42.5-73.3l-43.2-75.1l0,0l-42.2-73l-3.5,6l-1.8-1.1l1.8,1.1l-44.6,77.2V830c8.9,0,17.7,1.4,26.2,3.5c9.2,2.1,18.1,5.7,26.6,9.9
	l1.1,0.7v1.1c0,12,3.9,23.4,10.6,33C258.3,887,267.5,893.8,278.5,897.7L278.5,897.7z M424.5,694.3c-7.8-3.9-15.9-6.7-24.1-8.9
	c-8.1-2.1-16.7-3.2-25.5-3.2v19.1v35.8l27.3,47.5L424.5,694.3z M371,682.2c-8.5,0-17,1.1-25.2,3.2c-8.5,2.1-16.7,5-24.1,8.9l22,90.4
	l27.3-47.5v-35.8V682.2z M320.3,704.9c-1.8,8.5-5.3,16.7-10.6,23.7c-6.7,9.2-16.3,16.7-27.6,20.6l41.1,71.2l18.1-31.2L320.3,704.9z
	 M345.1,790L371,894.5V745L345.1,790z M374.9,894.5L401.1,790l-26.2-45V894.5z M416.3,1135.8l4.3-7.8l-16.7-29.4l-25.5,102.8
	L416.3,1135.8L416.3,1135.8z M423,1124.1l40.7-71.2c-11.3-3.9-20.6-11.3-27.6-20.6c-5-7.1-8.5-15.2-10.3-23.7l-20.9,84.3L423,1124.1
	z M468.4,1052.9l-43.2,75.1l42.5,73.3c11-3.9,19.8-10.6,26.6-19.5c6.7-9.6,10.6-20.9,10.6-33v-1.1l1.1-0.7
	c8.5-4.3,17.4-7.8,26.6-9.9c8.5-2.1,17.4-3.2,26.2-3.5v-70.5l-44.6-77.2l3.2-2.1l37.9,65.9l-25.5-103.1L513,976l4.3,7.8l-3.2,2.1
	l-3.5-6l-40.7,70.9l0,0L468.4,1052.9z M465.2,1204.9l-42.2-73l-3.5,5.7l-1.8-0.7l1.8,0.7l-44.6,77.2v70.9c8.9,0,17.7,1.1,26.2,3.2
	c9.2,2.5,18.1,5.7,26.6,10.3l1.1,0.4v1.4c0,12,3.9,23.4,10.6,32.6c6.7,8.9,15.6,15.9,26.6,19.8l42.5-73.7L465.2,1204.9z M371,1285.6
	v-70.9l-44.3-77.2l3.2-1.8l37.9,65.5l-25.5-102.8l-17,29.4l4.6,7.8l-3.2,1.8l-3.5-5.7l-41.1,70.9h0.4l-1.4,2.1l-43.2,74.8l42.5,73.7
	c10.6-3.9,19.8-11,26.6-19.8c6.7-9.2,10.6-20.6,10.6-32.6v-1.4l1.1-0.4c8.1-4.6,17.4-7.8,26.2-10.3
	C353.6,1286.7,362.1,1285.6,371,1285.6L371,1285.6z M278.5,1201.3L321,1128l-43.2-75.1l0,0l-42.2-73l-3.5,6l-1.8-1.1l1.8,1.1
	l-44.6,77.2v70.5c8.9,0.4,17.7,1.4,26.2,3.5c9.2,2.1,18.1,5.7,26.6,9.9l1.1,0.7v1.1c0,12,3.9,23.4,10.6,33
	C258.3,1190.7,267.5,1197.8,278.5,1201.3L278.5,1201.3z M424.5,997.9c-7.8-3.9-15.9-6.7-24.1-8.9c-8.1-2.1-16.7-3.2-25.5-3.2v19.1
	v35.8l27.3,47.5L424.5,997.9z M371,985.9c-8.5,0-17,1.1-25.2,3.2c-8.5,2.1-16.7,5-24.1,8.9l22,90.4l27.3-47.5V1005V985.9z
	 M320.3,1008.6c-1.8,8.5-5.3,16.7-10.6,23.7c-6.7,9.2-16.3,16.7-27.6,20.6l41.1,71.2l18.1-31.2L320.3,1008.6z M345.1,1093.6
	l25.9,104.5v-149.5L345.1,1093.6z M374.9,1198.1l26.2-104.5l-26.2-45V1198.1z M416.3,1439.4l4.3-7.8l-16.7-29.4L378.4,1505
	L416.3,1439.4L416.3,1439.4z M423,1427.7l40.7-70.9c-11.3-4.3-20.6-11.7-27.6-20.9c-5-7.1-8.5-15.2-10.3-23.7l-20.9,84.3L423,1427.7
	z M468.4,1356.5l-43.2,75.1l42.5,73.3c11-3.5,19.8-10.6,26.6-19.5c6.7-9.6,10.6-20.9,10.6-33v-1.1l1.1-0.7
	c8.5-4.3,17.4-7.8,26.6-9.9c8.5-2.1,17.4-3.2,26.2-3.5v-70.5l-44.6-77.2l3.2-2.1l37.9,65.9l-25.5-103.1l-16.7,29.4l4.3,7.8l-3.2,2.1
	l-3.5-6l-40.7,70.9l0,0L468.4,1356.5z M278.5,1505l42.5-73.3l-43.2-75.1l0,0l-42.2-73l-3.5,6l-1.8-1.1l1.8,1.1l-44.6,77.2v70.5
	c8.9,0.4,17.7,1.4,26.2,3.5c9.2,2.1,18.1,5.7,26.6,9.9l1.1,0.7v1.1c0,12,3.9,23.4,10.6,33C258.3,1494.3,267.5,1501.4,278.5,1505
	L278.5,1505z M424.5,1301.6c-7.8-3.9-15.9-6.7-24.1-8.9c-8.1-2.1-16.7-3.2-25.5-3.2v19.1v35.8l27.3,47.5L424.5,1301.6z M371,1289.5
	c-8.5,0-17,1.1-25.2,3.2c-8.5,2.1-16.7,5-24.1,8.9l22,90.4l27.3-47.5v-35.8V1289.5z M320.3,1312.2c-1.8,8.5-5.3,16.7-10.6,23.7
	c-6.7,9.2-16.3,16.7-27.6,20.6l41.1,71.2l18.1-31.2L320.3,1312.2z M345.1,1397.3l25.9,104.9v-149.9L345.1,1397.3z M374.9,1502.1
	l26.2-104.9l-26.2-45V1502.1z M1166,224.8l4.6-7.8l-17-29.4l-25.5,102.8L1166,224.8L1166,224.8z M1172.8,213.1l41.1-71.2
	c-11.3-3.9-20.9-11.3-27.6-20.6c-5-7.1-8.5-15.2-10.3-23.7l-20.9,84.3L1172.8,213.1z M1218.5,141.9l-43.2,75.1l42.5,73.3
	c10.6-3.9,19.8-10.6,26.2-19.5c7.1-9.6,11-20.9,11-33v-1.1l0.7-0.7c8.5-4.3,17.4-7.8,26.6-9.9c8.5-2.1,17.4-3.5,26.2-3.5v-70.5
	l-44.6-77.2l3.5-2.1l37.9,65.9l-25.5-103.1l-17,29.4l4.6,7.8l-3.5,2.1l-3.2-6l-41.1,70.9l0,0L1218.5,141.9z M1028.2,290.4l42.5-73.3
	l-43.2-75.1l0,0l-42.2-73l-3.2,6l-1.8-1.1l1.8,1.1l-44.6,77.2v70.5c8.9,0,17.7,1.4,26.2,3.5c9.2,2.1,18.1,5.7,26.6,9.9l1.1,0.7v1.1
	c0,12,3.9,23.4,10.6,33C1008.4,279.7,1017.6,286.5,1028.2,290.4L1028.2,290.4z M1174.6,87c-7.8-3.9-15.9-6.7-24.4-8.9
	c-8.1-2.1-16.7-3.2-25.2-3.2v19.1v35.8l27.3,47.1L1174.6,87z M1121,74.9c-8.5,0-17,1.1-25.2,3.2c-8.5,2.1-16.7,5-24.4,8.9l22.3,90
	l27.3-47.1V94.1V74.9z M1070,97.6c-1.8,8.5-5.3,16.7-10.3,23.7c-6.7,9.2-16.3,16.7-27.6,20.6l41.1,71.2l17.7-31.2L1070,97.6z
	 M1095.2,182.7l25.9,104.5V137.7L1095.2,182.7z M1124.9,287.2l25.9-104.5l-25.9-45V287.2z M1166,832.1l4.6-7.8l-17-29.4l-25.5,102.8
	L1166,832.1L1166,832.1z M1172.8,820.4l41.1-71.2c-11.3-3.9-20.9-11.3-27.6-20.6c-5-7.1-8.5-15.2-10.3-23.7l-20.9,84.3L1172.8,820.4
	z M1218.5,749.2l-43.2,75.1l42.5,73.3c10.6-3.9,19.8-10.6,26.2-19.5c7.1-9.6,11-20.9,11-33v-1.1l0.7-0.7c8.5-4.3,17.4-7.8,26.6-9.9
	c8.5-2.1,17.4-3.5,26.2-3.5v-70.5l-44.6-77.2l3.5-2.1l37.9,65.9l-25.5-103.1l-17,29.4l4.6,7.8l-3.5,2.1l-3.2-6l-41.1,70.9l0,0
	L1218.5,749.2z M1214.9,901.2l-42.2-73l-3.2,5.7l-1.8-0.7l1.8,0.7l-44.6,77.2V982c8.9,0,17.7,1.1,26.2,3.2
	c9.2,2.5,18.1,5.7,26.6,10.3l1.1,0.4v1.4c0,12,3.9,23.4,10.6,32.6c6.4,8.9,15.6,15.9,26.6,19.8l42.5-73.7L1214.9,901.2z M1121,982
	v-70.9l-44.6-77.2l3.5-1.8l37.9,65.5l-25.5-102.8l-17,29.4l4.6,7.8l-3.5,1.8l-3.2-5.7l-41.1,70.9l0,0l-1.1,2.1L987.8,976l42.2,73.7
	c11-3.9,20.2-11,26.6-19.8c6.7-9.2,10.6-20.6,10.6-32.6v-1.4l1.1-0.4c8.5-4.6,17.4-7.8,26.6-10.3C1103.3,983.1,1112.2,982,1121,982
	L1121,982z M1028.2,897.7l42.5-73.3l-43.2-75.1l0,0l-42.2-73l-3.2,6l-1.8-1.1l1.8,1.1l-44.6,77.2V830c8.9,0,17.7,1.4,26.2,3.5
	c9.2,2.1,18.1,5.7,26.6,9.9l1.1,0.7v1.1c0,12,3.9,23.4,10.6,33C1008.4,887,1017.6,893.8,1028.2,897.7L1028.2,897.7z M1174.6,694.3
	c-7.8-3.9-15.9-6.7-24.4-8.9c-8.1-2.1-16.7-3.2-25.2-3.2v19.1v35.8l27.3,47.5L1174.6,694.3z M1121,682.2c-8.5,0-17,1.1-25.2,3.2
	c-8.5,2.1-16.7,5-24.4,8.9l22.3,90.4l27.3-47.5v-35.8V682.2z M1070,704.9c-1.8,8.5-5.3,16.7-10.3,23.7c-6.7,9.2-16.3,16.7-27.6,20.6
	l41.1,71.2l17.7-31.2L1070,704.9z M1095.2,790l25.9,104.5V745L1095.2,790z M1124.9,894.5l25.9-104.5l-25.9-45V894.5z M1166,1135.8
	l4.6-7.8l-17-29.4l-25.5,102.8L1166,1135.8L1166,1135.8z M1172.8,1124.1l41.1-71.2c-11.3-3.9-20.9-11.3-27.6-20.6
	c-5-7.1-8.5-15.2-10.3-23.7l-20.9,84.3L1172.8,1124.1z M1218.5,1052.9l-43.2,75.1l42.5,73.3c10.6-3.9,19.8-10.6,26.2-19.5
	c7.1-9.6,11-20.9,11-33v-1.1l0.7-0.7c8.5-4.3,17.4-7.8,26.6-9.9c8.5-2.1,17.4-3.2,26.2-3.5v-70.5l-44.6-77.2l3.5-2.1l37.9,65.9
	l-25.5-103.1l-17,29.4l4.6,7.8l-3.5,2.1l-3.2-6l-41.1,70.9l0,0L1218.5,1052.9z M1214.9,1204.9l-42.2-73l-3.2,5.7l-1.8-0.7l1.8,0.7
	l-44.6,77.2v70.9c8.9,0,17.7,1.1,26.2,3.2c9.2,2.5,18.1,5.7,26.6,10.3l1.1,0.4v1.4c0,12,3.9,23.4,10.6,32.6
	c6.4,8.9,15.6,15.9,26.6,19.8l42.5-73.7L1214.9,1204.9z M1121,1285.6v-70.9l-44.6-77.2l3.5-1.8l37.9,65.5l-25.5-102.8l-17,29.4
	l4.6,7.8l-3.5,1.8l-3.2-5.7l-41.1,70.9l0,0l-1.1,2.1l-43.2,74.8l42.2,73.7c11-3.9,20.2-11,26.6-19.8c6.7-9.2,10.6-20.6,10.6-32.6
	v-1.4l1.1-0.4c8.5-4.6,17.4-7.8,26.6-10.3C1103.3,1286.7,1112.2,1285.6,1121,1285.6L1121,1285.6z M1028.2,1201.3l42.5-73.3
	l-43.2-75.1l0,0l-42.2-73l-3.2,6l-1.8-1.1l1.8,1.1l-44.6,77.2v70.5c8.9,0.4,17.7,1.4,26.2,3.5c9.2,2.1,18.1,5.7,26.6,9.9l1.1,0.7
	v1.1c0,12,3.9,23.4,10.6,33C1008.4,1190.7,1017.6,1197.8,1028.2,1201.3L1028.2,1201.3z M1174.6,997.9c-7.8-3.9-15.9-6.7-24.4-8.9
	c-8.1-2.1-16.7-3.2-25.2-3.2v19.1v35.8l27.3,47.5L1174.6,997.9z M1121,985.9c-8.5,0-17,1.1-25.2,3.2c-8.5,2.1-16.7,5-24.4,8.9
	l22.3,90.4l27.3-47.5V1005V985.9z M1070,1008.6c-1.8,8.5-5.3,16.7-10.3,23.7c-6.7,9.2-16.3,16.7-27.6,20.6l41.1,71.2l17.7-31.2
	L1070,1008.6z M1095.2,1093.6l25.9,104.5v-149.5L1095.2,1093.6z M1124.9,1198.1l25.9-104.5l-25.9-45V1198.1z M1166,1439.4l4.6-7.8
	l-17-29.4l-25.5,102.8L1166,1439.4L1166,1439.4z M1172.8,1427.7l41.1-70.9c-11.3-4.3-20.9-11.7-27.6-20.9c-5-7.1-8.5-15.2-10.3-23.7
	l-20.9,84.3L1172.8,1427.7z M1218.5,1356.5l-43.2,75.1l42.5,73.3c10.6-3.5,19.8-10.6,26.2-19.5c7.1-9.6,11-20.9,11-33v-1.1l0.7-0.7
	c8.5-4.3,17.4-7.8,26.6-9.9c8.5-2.1,17.4-3.2,26.2-3.5v-70.5l-44.6-77.2l3.5-2.1l37.9,65.9l-25.5-103.1l-17,29.4l4.6,7.8l-3.5,2.1
	l-3.2-6l-41.1,70.9l0,0L1218.5,1356.5z M1028.2,1505l42.5-73.3l-43.2-75.1l0,0l-42.2-73l-3.2,6l-1.8-1.1l1.8,1.1l-44.6,77.2v70.5
	c8.9,0.4,17.7,1.4,26.2,3.5c9.2,2.1,18.1,5.7,26.6,9.9l1.1,0.7v1.1c0,12,3.9,23.4,10.6,33C1008.4,1494.3,1017.6,1501.4,1028.2,1505
	L1028.2,1505z M1174.6,1301.6c-7.8-3.9-15.9-6.7-24.4-8.9c-8.1-2.1-16.7-3.2-25.2-3.2v19.1v35.8l27.3,47.5L1174.6,1301.6z
	 M1121,1289.5c-8.5,0-17,1.1-25.2,3.2c-8.5,2.1-16.7,5-24.4,8.9l22.3,90.4l27.3-47.5v-35.8V1289.5z M1070,1312.2
	c-1.8,8.5-5.3,16.7-10.3,23.7c-6.7,9.2-16.3,16.7-27.6,20.6l41.1,71.2l17.7-31.2L1070,1312.2z M1095.2,1397.3l25.9,104.9v-149.9
	L1095.2,1397.3z M1124.9,1502.1l25.9-104.9l-25.9-45V1502.1z M228.9,72.8l4.3-7.8l-17-29.4l-25.5,103.1L228.9,72.8L228.9,72.8z
	 M228.9,680.1l4.3-7.8l-17-29.4L190.6,746L228.9,680.1L228.9,680.1z M235.6,668.4l40.7-70.9c-11.3-4.3-20.9-11.7-27.6-20.9
	c-5-6.7-8.5-14.9-10.3-23.4l-20.9,84.3L235.6,668.4z M237,542.6c-7.8-3.9-15.9-7.1-24.1-9.2c-8.5-1.8-17-2.8-25.5-3.2v19.1v36.1
	l27.3,47.1L237,542.6z M183.5,530.2c-8.5,0.4-17,1.4-25.2,3.2c-8.5,2.1-16.7,5.3-24.4,9.2l22.3,90l27.3-47.1v-36.1V530.2z
	 M132.5,553.3c-1.4,8.5-5,16.7-10.3,23.4c-6.7,9.2-16.3,16.7-27.6,20.9l41.1,70.9l17.7-30.8L132.5,553.3z M157.7,638l25.9,104.9
	V593.3L157.7,638z M187.4,742.8L213.3,638l-25.9-44.6V742.8z M978.6,72.8l4.6-7.8l-17-29.4l-25.5,103.1L978.6,72.8L978.6,72.8z
	 M933.6,222.7v-70.5L889,74.9l3.5-2.1l37.9,65.9L904.9,35.6l-17,29.4l4.6,7.8l-3.5,2.1l-3.2-6l-41.1,70.9l0,0l-1.1,2.1L800,217
	l42.5,73.3c11-3.9,20.2-10.6,26.6-19.5c6.7-9.6,10.6-20.9,10.6-33v-1.1l1.1-0.7c8.5-4.3,17.4-7.8,26.6-9.9
	C915.9,224.1,924.8,222.7,933.6,222.7L933.6,222.7z M978.6,680.1l4.6-7.8l-17-29.4L940.7,746L978.6,680.1L978.6,680.1z M985.3,668.4
	l41.1-70.9c-11.3-4.3-20.9-11.7-27.6-20.9c-5-6.7-8.5-14.9-10.3-23.4l-20.9,84.3L985.3,668.4z M933.6,830v-70.5L889,682.2l3.5-2.1
	l37.9,65.9l-25.5-103.1l-17,29.4l4.6,7.8l-3.5,2.1l-3.2-6l-41.1,70.9l0,0l-1.1,2.1L800,824.3l42.5,73.3c11-3.9,20.2-10.6,26.6-19.5
	c6.7-9.6,10.6-20.9,10.6-33v-1.1l1.1-0.7c8.5-4.3,17.4-7.8,26.6-9.9C915.9,831.4,924.8,830,933.6,830L933.6,830z M840.8,746
	l42.5-73.7l-43.2-74.8l-42.2-73l-3.2,5.7l-1.8-0.7l1.8,0.7l-44.6,77.2v70.9c8.9,0,17.7,1.1,26.2,3.2c9.2,2.5,18.1,5.7,26.6,10.3
	l1.1,0.4v1.4c0,12,3.9,23.4,10.6,32.6C820.9,735,830.2,742.1,840.8,746L840.8,746z M842.6,594c11-3.9,20.2-10.6,26.6-19.5
	c6.7-9.6,10.6-20.9,10.6-33v-1.1l1.1-0.7c8.5-4.3,17.4-7.8,26.6-9.9c8.5-2.1,17.4-3.5,26.2-3.5v-70.5L889,378.6l3.5-2.1l37.9,65.9
	l-25.5-103.1l-17,29.4l4.6,7.8l-3.5,2.1l-3.2-6l-41.1,70.9l0,0l-1.1,2.1L800,520.7L842.6,594z M987.1,542.6
	c-7.8-3.9-15.9-7.1-24.4-9.2c-8.1-1.8-16.7-2.8-25.2-3.2v19.1v36.1l27.3,47.1L987.1,542.6z M933.6,530.2c-8.5,0.4-17,1.4-25.2,3.2
	c-8.5,2.1-16.7,5.3-24.4,9.2l22.3,90l27.3-47.1v-36.1V530.2z M882.6,553.3c-1.8,8.5-5.3,16.7-10.3,23.4
	c-6.7,9.2-16.3,16.7-27.6,20.9l41.1,70.9l17.7-30.8L882.6,553.3z M907.7,638l25.9,104.9V593.3L907.7,638z M937.5,742.8L963.4,638
	l-25.9-44.6V742.8z M228.9,376.5l4.3-7.8l-17-29.4l-25.5,103.1L228.9,376.5L228.9,376.5z M235.6,364.8l40.7-70.9
	c-11.3-4.3-20.9-11.7-27.6-20.9c-5-7.1-8.5-14.9-10.3-23.4L217.5,334L235.6,364.8z M237,239c-7.8-3.9-15.9-7.1-24.1-9.2
	c-8.5-1.8-17-3.2-25.5-3.2v19.1v36.1l27.3,47.1L237,239z M183.5,226.6c-8.5,0-17,1.4-25.2,3.2c-8.5,2.1-16.7,5.3-24.4,9.2l22.3,90
	l27.3-47.1v-36.1V226.6z M132.5,249.6c-1.4,8.5-5,16.3-10.3,23.4c-6.7,9.2-16.3,16.7-27.6,20.9l41.1,70.9l17.7-30.8L132.5,249.6z
	 M157.7,334.3l25.9,104.9V289.7L157.7,334.3z M187.4,439.2l25.9-104.9l-25.9-44.6V439.2z M228.9,983.8l4.3-7.8l-17-29.4l-25.5,103.1
	L228.9,983.8L228.9,983.8z M235.6,972.1l40.7-70.9c-11.3-4.3-20.9-11.7-27.6-20.9c-5-6.7-8.5-14.9-10.3-23.4l-20.9,84.3L235.6,972.1
	z M237,846.3c-7.8-3.9-15.9-7.1-24.1-9.2c-8.5-1.8-17-2.8-25.5-3.2V853v36.1l27.3,47.1L237,846.3z M183.5,833.9
	c-8.5,0.4-17,1.4-25.2,3.2c-8.5,2.1-16.7,5.3-24.4,9.2l22.3,90l27.3-47.1V853V833.9z M132.5,856.9c-1.4,8.5-5,16.7-10.3,23.4
	c-6.7,9.2-16.3,16.7-27.6,20.9l41.1,70.9l17.7-30.8L132.5,856.9z M157.7,941.6l25.9,104.9V897L157.7,941.6z M187.4,1046.5
	l25.9-104.9L187.4,897V1046.5z M228.9,1287.4l4.3-7.8l-17-29.4l-25.5,103.1L228.9,1287.4L228.9,1287.4z M235.6,1275.7l40.7-70.9
	c-11.3-4.3-20.9-11.3-27.6-20.9c-5-6.7-8.5-14.9-10.3-23.4l-20.9,84.3L235.6,1275.7z M237,1149.9c-7.8-3.9-15.9-7.1-24.1-9.2
	c-8.5-1.8-17-2.8-25.5-3.2v19.1v36.1l27.3,47.1L237,1149.9z M183.5,1137.5c-8.5,0.4-17,1.4-25.2,3.2c-8.5,2.1-16.7,5.3-24.4,9.2
	l22.3,90l27.3-47.1v-36.1V1137.5z M132.5,1160.6c-1.4,8.5-5,16.7-10.3,23.4c-6.7,9.2-16.3,16.7-27.6,20.9l41.1,70.9l17.7-30.8
	L132.5,1160.6z M157.7,1245.3l25.9,104.9v-149.5L157.7,1245.3z M187.4,1350.1l25.9-104.9l-25.9-44.6V1350.1z M978.6,376.5l4.6-7.8
	l-17-29.4l-25.5,103.1L978.6,376.5L978.6,376.5z M985.3,364.8l41.1-70.9c-11.3-4.3-20.9-11.7-27.6-20.9c-5-7.1-8.5-14.9-10.3-23.4
	L967.6,334L985.3,364.8z M840.8,442.4l42.5-73.7l-43.2-74.8l-42.2-73l-3.2,5.7l-1.8-0.7l1.8,0.7l-44.6,77.2v70.9
	c8.9,0,17.7,1.1,26.2,3.2c9.2,2.5,18.1,5.7,26.6,10.3l1.1,0.4v1.4c0,12,3.9,23.4,10.6,32.6C820.9,431.4,830.2,438.5,840.8,442.4
	L840.8,442.4z M987.1,239c-7.8-3.9-15.9-7.1-24.4-9.2c-8.1-1.8-16.7-3.2-25.2-3.2v19.1v36.1l27.3,47.1L987.1,239z M933.6,226.6
	c-8.5,0-17,1.4-25.2,3.2c-8.5,2.1-16.7,5.3-24.4,9.2l22.3,90l27.3-47.1v-36.1V226.6z M882.6,249.6c-1.8,8.5-5.3,16.3-10.3,23.4
	c-6.7,9.2-16.3,16.7-27.6,20.9l41.1,70.9l17.7-30.8L882.6,249.6z M907.7,334.3l25.9,104.9V289.7L907.7,334.3z M937.5,439.2
	l25.9-104.9l-25.9-44.6V439.2z M978.6,983.8l4.6-7.8l-17-29.4l-25.5,103.1L978.6,983.8L978.6,983.8z M985.3,972.1l41.1-70.9
	c-11.3-4.3-20.9-11.7-27.6-20.9c-5-6.7-8.5-14.9-10.3-23.4l-20.9,84.3L985.3,972.1z M933.6,1133.6v-70.5L889,985.9l3.5-2.1
	l37.9,65.9l-25.5-103.1l-17,29.4l4.6,7.8l-3.5,2.1l-3.2-6l-41.1,70.9l0,0l-1.1,2.1L800,1128l42.5,73.3c11-3.9,20.2-10.6,26.6-19.5
	c6.7-9.6,10.6-20.9,10.6-33v-1.1l1.1-0.7c8.5-4.3,17.4-7.8,26.6-9.9C915.9,1135.1,924.8,1134,933.6,1133.6L933.6,1133.6z
	 M840.8,1049.7l42.5-73.7l-43.2-74.8l-42.2-73l-3.2,5.7l-1.8-0.7l1.8,0.7l-44.6,77.2V982c8.9,0,17.7,1.1,26.2,3.2
	c9.2,2.5,18.1,5.7,26.6,10.3l1.1,0.4v1.4c0,12,3.9,23.4,10.6,32.6C820.9,1038.7,830.2,1045.8,840.8,1049.7L840.8,1049.7z
	 M987.1,846.3c-7.8-3.9-15.9-7.1-24.4-9.2c-8.1-1.8-16.7-2.8-25.2-3.2V853v36.1l27.3,47.1L987.1,846.3z M933.6,833.9
	c-8.5,0.4-17,1.4-25.2,3.2c-8.5,2.1-16.7,5.3-24.4,9.2l22.3,90l27.3-47.1V853V833.9z M882.6,856.9c-1.8,8.5-5.3,16.7-10.3,23.4
	c-6.7,9.2-16.3,16.7-27.6,20.9l41.1,70.9l17.7-30.8L882.6,856.9z M907.7,941.6l25.9,104.9V897L907.7,941.6z M937.5,1046.5
	l25.9-104.9L937.5,897V1046.5z M978.6,1287.4l4.6-7.8l-17-29.4l-25.5,103.1L978.6,1287.4L978.6,1287.4z M985.3,1275.7l41.1-70.9
	c-11.3-4.3-20.9-11.3-27.6-20.9c-5-6.7-8.5-14.9-10.3-23.4l-20.9,84.3L985.3,1275.7z M933.6,1437.3v-70.5l-44.6-77.2l3.5-2.1
	l37.9,65.9l-25.5-103.1l-17,29.4l4.6,7.8l-3.5,2.1l-3.2-6l-41.1,70.9l0,0l-1.1,2.1l-43.6,75.1l42.5,73.3c11-3.5,20.2-10.6,26.6-19.5
	c6.7-9.6,10.6-20.9,10.6-33v-1.1l1.1-0.7c8.5-4.3,17.4-7.8,26.6-9.9C915.9,1438.7,924.8,1437.6,933.6,1437.3L933.6,1437.3z
	 M840.8,1353.3l42.5-73.7l-43.2-74.8l-42.2-73l-3.2,5.7l-1.8-0.7l1.8,0.7l-44.6,77.2v70.9c8.9,0,17.7,1.1,26.2,3.2
	c9.2,2.5,18.1,5.7,26.6,10.3l1.1,0.4v1.4c0,12,3.9,23.4,10.6,32.6C820.9,1342.3,830.2,1349.4,840.8,1353.3L840.8,1353.3z
	 M987.1,1149.9c-7.8-3.9-15.9-7.1-24.4-9.2c-8.1-1.8-16.7-2.8-25.2-3.2v19.1v36.1l27.3,47.1L987.1,1149.9z M933.6,1137.5
	c-8.5,0.4-17,1.4-25.2,3.2c-8.5,2.1-16.7,5.3-24.4,9.2l22.3,90l27.3-47.1v-36.1V1137.5z M882.6,1160.6c-1.8,8.5-5.3,16.7-10.3,23.4
	c-6.7,9.2-16.3,16.7-27.6,20.9l41.1,70.9l17.7-30.8L882.6,1160.6z M907.7,1245.3l25.9,104.9v-149.5L907.7,1245.3z M937.5,1350.1
	l25.9-104.9l-25.9-44.6V1350.1z M603.7,72.8l4.6-7.8l-17-29.4l-25.5,103.1L603.7,72.8L603.7,72.8z M652.6,141.9L652.6,141.9
	l-42.2-73l-3.5,6l-1.4-1.1l1.4,1.1l-44.3,77.2v70.5c8.9,0,17.4,1.4,26.2,3.5c8.9,2.1,18.1,5.7,26.2,9.9l1.1,0.7v1.1
	c0,12,3.9,23.4,10.6,33c6.7,8.9,15.9,15.6,26.6,19.5l42.5-73.3L652.6,141.9z M603.7,680.1l4.6-7.8l-17-29.4L565.8,746L603.7,680.1
	L603.7,680.1z M610.5,668.4l41.1-70.9c-11.3-4.3-20.9-11.7-27.6-20.9c-5.3-6.7-8.9-14.9-10.6-23.4l-20.6,84.3L610.5,668.4z
	 M655.8,597.6l-43.2,74.8l42.5,73.7c11-3.9,20.2-11,26.6-19.8c6.7-9.2,10.6-20.6,10.6-32.6v-1.4l1.1-0.4c8.5-4.6,17.4-7.8,26.6-10.3
	c8.5-2.1,17.4-3.2,26.2-3.2v-70.9l-44.6-77.2l3.5-1.8L743,594l-25.5-102.8l-17,29.4l4.6,7.8l-3.5,1.8l-3.5-5.7l-40.7,70.9l0,0
	L655.8,597.6z M652.6,749.2L652.6,749.2l-42.2-73l-3.5,6l-1.4-1.1l1.4,1.1l-44.3,77.2V830c8.9,0,17.4,1.4,26.2,3.5
	c8.9,2.1,18.1,5.7,26.2,9.9l1.1,0.7v1.1c0,12,3.9,23.4,10.6,33c6.7,8.9,15.9,15.6,26.6,19.5l42.5-73.3L652.6,749.2z M562.6,526.3
	c8.9,0,17.4,1.4,26.2,3.5c8.9,2.1,18.1,5.7,26.2,9.9l1.1,0.7v1.1c0,12,3.9,23.4,10.6,33c6.7,8.9,15.9,15.6,26.6,19.5l42.5-73.3
	l-43.2-75.1l0,0l-42.2-73l-3.5,6l-1.4-1.1l1.4,1.1l-44.3,77.2V526.3z M611.9,542.6c-7.4-3.9-15.6-7.1-24.1-9.2
	c-8.1-1.8-16.7-2.8-25.2-3.2v19.1v36.1l27.3,47.1L611.9,542.6z M558.7,530.2c-8.9,0.4-17.4,1.4-25.5,3.2c-8.1,2.1-16.3,5.3-24.1,9.2
	l22.3,90l27.3-47.1v-36.1V530.2z M507.7,553.3c-1.8,8.5-5.3,16.7-10.3,23.4c-7.1,9.2-16.3,16.7-27.6,20.9l40.7,70.9l18.1-30.8
	L507.7,553.3z M532.5,638l26.2,104.9V593.3L532.5,638z M562.6,742.8L588.5,638l-25.9-44.6V742.8z M1353.8,72.8l4.3-7.8l-17-29.4
	l-25.5,103.1L1353.8,72.8L1353.8,72.8z M1402.7,141.9L1402.7,141.9l-42.2-73l-3.5,6l-1.8-1.1l1.8,1.1l-44.6,77.2v70.5
	c8.9,0,17.7,1.4,26.2,3.5c9.2,2.1,18.1,5.7,26.6,9.9l1.1,0.7v1.1c0,12,3.9,23.4,10.6,33c6.4,8.9,15.6,15.6,26.6,19.5L1446,217
	L1402.7,141.9z M1353.8,680.1l4.3-7.8l-17-29.4L1315.6,746L1353.8,680.1L1353.8,680.1z M1360.6,668.4l40.7-70.9
	c-11.3-4.3-20.9-11.7-27.6-20.9c-5-6.7-8.5-14.9-10.3-23.4l-20.9,84.3L1360.6,668.4z M1405.9,597.6l-43.2,74.8l42.5,73.7
	c10.6-3.9,19.8-11,26.6-19.8c6.7-9.2,10.6-20.6,10.6-32.6v-1.4l1.1-0.4c8.1-4.6,17.4-7.8,26.2-10.3c8.9-2.1,17.4-3.2,26.2-3.2v-70.9
	l-44.3-77.2l3.2-1.8l37.9,65.5l-25.5-102.8l-17,29.4l4.6,7.8l-3.2,1.8l-3.5-5.7l-41.1,70.9h0.4L1405.9,597.6z M1402.7,749.2
	L1402.7,749.2l-42.2-73l-3.5,6l-1.8-1.1l1.8,1.1l-44.6,77.2V830c8.9,0,17.7,1.4,26.2,3.5c9.2,2.1,18.1,5.7,26.6,9.9l1.1,0.7v1.1
	c0,12,3.9,23.4,10.6,33c6.4,8.9,15.6,15.6,26.6,19.5l42.5-73.3L1402.7,749.2z M1312.4,526.3c8.9,0,17.7,1.4,26.2,3.5
	c9.2,2.1,18.1,5.7,26.6,9.9l1.1,0.7v1.1c0,12,3.9,23.4,10.6,33c6.4,8.9,15.6,15.6,26.6,19.5l42.5-73.3l-43.2-75.1l0,0l-42.2-73
	l-3.5,6l-1.8-1.1l1.8,1.1l-44.6,77.2V526.3z M1362,542.6c-7.8-3.9-15.9-7.1-24.1-9.2c-8.5-1.8-17-2.8-25.5-3.2v19.1v36.1l27.3,47.1
	L1362,542.6z M1308.5,530.2c-8.5,0.4-17,1.4-25.2,3.2c-8.5,2.1-16.7,5.3-24.4,9.2l22.3,90l27.3-47.1v-36.1V530.2z M1257.5,553.3
	c-1.4,8.5-5,16.7-10.3,23.4c-6.7,9.2-16.3,16.7-27.6,20.9l41.1,70.9l17.7-30.8L1257.5,553.3z M1282.6,638l25.9,104.9V593.3
	L1282.6,638z M1312.4,742.8l25.9-104.9l-25.9-44.6V742.8z M603.7,376.5l4.6-7.8l-17-29.4l-25.5,103.1L603.7,376.5L603.7,376.5z
	 M610.5,364.8l41.1-70.9c-11.3-4.3-20.9-11.7-27.6-20.9c-5.3-7.1-8.9-14.9-10.6-23.4L592.8,334L610.5,364.8z M655.8,293.9
	l-43.2,74.8l42.5,73.7c11-3.9,20.2-11,26.6-19.8c6.7-9.2,10.6-20.6,10.6-32.6v-1.4l1.1-0.4c8.5-4.6,17.4-7.8,26.6-10.3
	c8.5-2.1,17.4-3.2,26.2-3.2v-70.9l-44.6-77.2l3.5-1.8l37.9,65.5l-25.5-102.8l-17,29.4l4.6,7.8l-3.5,1.8l-3.5-5.7l-40.7,70.9l0,0
	L655.8,293.9z M611.9,239c-7.4-3.9-15.6-7.1-24.1-9.2c-8.1-1.8-16.7-3.2-25.2-3.2v19.1v36.1l27.3,47.1L611.9,239z M558.7,226.6
	c-8.9,0-17.4,1.4-25.5,3.2c-8.1,2.1-16.3,5.3-24.1,9.2l22.3,90l27.3-47.1v-36.1V226.6z M507.7,249.6c-1.8,8.5-5.3,16.3-10.3,23.4
	c-7.1,9.2-16.3,16.7-27.6,20.9l40.7,70.9l18.1-30.8L507.7,249.6z M532.5,334.3l26.2,104.9V289.7L532.5,334.3z M562.6,439.2
	l25.9-104.9l-25.9-44.6V439.2z M603.7,983.8l4.6-7.8l-17-29.4l-25.5,103.1L603.7,983.8L603.7,983.8z M610.5,972.1l41.1-70.9
	c-11.3-4.3-20.9-11.7-27.6-20.9c-5.3-6.7-8.9-14.9-10.6-23.4l-20.6,84.3L610.5,972.1z M655.8,901.2L612.6,976l42.5,73.7
	c11-3.9,20.2-11,26.6-19.8c6.7-9.2,10.6-20.6,10.6-32.6v-1.4l1.1-0.4c8.5-4.6,17.4-7.8,26.6-10.3c8.5-2.1,17.4-3.2,26.2-3.2v-70.9
	l-44.6-77.2l3.5-1.8l37.9,65.5l-25.5-102.8l-17,29.4l4.6,7.8l-3.5,1.8l-3.5-5.7l-40.7,70.9l0,0L655.8,901.2z M652.6,1052.9
	L652.6,1052.9l-42.2-73l-3.5,6l-1.4-1.1l1.4,1.1l-44.3,77.2v70.5c8.9,0.4,17.4,1.4,26.2,3.5c8.9,2.1,18.1,5.7,26.2,9.9l1.1,0.7v1.1
	c0,12,3.9,23.4,10.6,33c6.7,8.9,15.9,15.9,26.6,19.5l42.5-73.3L652.6,1052.9z M611.9,846.3c-7.4-3.9-15.6-7.1-24.1-9.2
	c-8.1-1.8-16.7-2.8-25.2-3.2V853v36.1l27.3,47.1L611.9,846.3z M558.7,833.9c-8.9,0.4-17.4,1.4-25.5,3.2c-8.1,2.1-16.3,5.3-24.1,9.2
	l22.3,90l27.3-47.1V853V833.9z M507.7,856.9c-1.8,8.5-5.3,16.7-10.3,23.4c-7.1,9.2-16.3,16.7-27.6,20.9l40.7,70.9l18.1-30.8
	L507.7,856.9z M532.5,941.6l26.2,104.9V897L532.5,941.6z M562.6,1046.5l25.9-104.9L562.6,897V1046.5z M603.7,1287.4l4.6-7.8
	l-17-29.4l-25.5,103.1L603.7,1287.4L603.7,1287.4z M610.5,1275.7l41.1-70.9c-11.3-4.3-20.9-11.3-27.6-20.9
	c-5.3-6.7-8.9-14.9-10.6-23.4l-20.6,84.3L610.5,1275.7z M655.8,1204.9l-43.2,74.8l42.5,73.7c11-3.9,20.2-11,26.6-19.8
	c6.7-9.2,10.6-20.6,10.6-32.6v-1.4l1.1-0.4c8.5-4.6,17.4-7.8,26.6-10.3c8.5-2.1,17.4-3.2,26.2-3.2v-70.9l-44.6-77.2l3.5-1.8
	l37.9,65.5l-25.5-102.8l-17,29.4l4.6,7.8l-3.5,1.8l-3.5-5.7l-40.7,70.9l0,0L655.8,1204.9z M652.6,1356.5L652.6,1356.5l-42.2-73
	l-3.5,6l-1.4-1.1l1.4,1.1l-44.3,77.2v70.5c8.9,0.4,17.4,1.4,26.2,3.5c8.9,2.1,18.1,5.7,26.2,9.9l1.1,0.7v1.1c0,12,3.9,23.4,10.6,33
	c6.7,8.9,15.9,15.9,26.6,19.5l42.5-73.3L652.6,1356.5z M611.9,1149.9c-7.4-3.9-15.6-7.1-24.1-9.2c-8.1-1.8-16.7-2.8-25.2-3.2v19.1
	v36.1l27.3,47.1L611.9,1149.9z M558.7,1137.5c-8.9,0.4-17.4,1.4-25.5,3.2c-8.1,2.1-16.3,5.3-24.1,9.2l22.3,90l27.3-47.1v-36.1
	V1137.5z M507.7,1160.6c-1.8,8.5-5.3,16.7-10.3,23.4c-7.1,9.2-16.3,16.7-27.6,20.9l40.7,70.9l18.1-30.8L507.7,1160.6z M532.5,1245.3
	l26.2,104.9v-149.5L532.5,1245.3z M562.6,1350.1l25.9-104.9l-25.9-44.6V1350.1z M1353.8,376.5l4.3-7.8l-17-29.4l-25.5,103.1
	L1353.8,376.5L1353.8,376.5z M1360.6,364.8l40.7-70.9c-11.3-4.3-20.9-11.7-27.6-20.9c-5-7.1-8.5-14.9-10.3-23.4l-20.9,84.3
	L1360.6,364.8z M1405.9,293.9l-43.2,74.8l42.5,73.7c10.6-3.9,19.8-11,26.6-19.8c6.7-9.2,10.6-20.6,10.6-32.6v-1.4l1.1-0.4
	c8.1-4.6,17.4-7.8,26.2-10.3c8.9-2.1,17.4-3.2,26.2-3.2v-70.9l-44.3-77.2l3.2-1.8l37.9,65.5l-25.5-102.8l-17,29.4l4.6,7.8l-3.2,1.8
	l-3.5-5.7l-41.1,70.9h0.4L1405.9,293.9z M1362,239c-7.8-3.9-15.9-7.1-24.1-9.2c-8.5-1.8-17-3.2-25.5-3.2v19.1v36.1l27.3,47.1
	L1362,239z M1308.5,226.6c-8.5,0-17,1.4-25.2,3.2c-8.5,2.1-16.7,5.3-24.4,9.2l22.3,90l27.3-47.1v-36.1V226.6z M1257.5,249.6
	c-1.4,8.5-5,16.3-10.3,23.4c-6.7,9.2-16.3,16.7-27.6,20.9l41.1,70.9l17.7-30.8L1257.5,249.6z M1282.6,334.3l25.9,104.9V289.7
	L1282.6,334.3z M1312.4,439.2l25.9-104.9l-25.9-44.6V439.2z M1353.8,983.8l4.3-7.8l-17-29.4l-25.5,103.1L1353.8,983.8L1353.8,983.8z
	 M1360.6,972.1l40.7-70.9c-11.3-4.3-20.9-11.7-27.6-20.9c-5-6.7-8.5-14.9-10.3-23.4l-20.9,84.3L1360.6,972.1z M1405.9,901.2
	l-43.2,74.8l42.5,73.7c10.6-3.9,19.8-11,26.6-19.8c6.7-9.2,10.6-20.6,10.6-32.6v-1.4l1.1-0.4c8.1-4.6,17.4-7.8,26.2-10.3
	c8.9-2.1,17.4-3.2,26.2-3.2v-70.9l-44.3-77.2l3.2-1.8l37.9,65.5l-25.5-102.8l-17,29.4l4.6,7.8l-3.2,1.8l-3.5-5.7l-41.1,70.9h0.4
	L1405.9,901.2z M1402.7,1052.9L1402.7,1052.9l-42.2-73l-3.5,6l-1.8-1.1l1.8,1.1l-44.6,77.2v70.5c8.9,0.4,17.7,1.4,26.2,3.5
	c9.2,2.1,18.1,5.7,26.6,9.9l1.1,0.7v1.1c0,12,3.9,23.4,10.6,33c6.4,8.9,15.6,15.9,26.6,19.5l42.5-73.3L1402.7,1052.9z M1362,846.3
	c-7.8-3.9-15.9-7.1-24.1-9.2c-8.5-1.8-17-2.8-25.5-3.2V853v36.1l27.3,47.1L1362,846.3z M1308.5,833.9c-8.5,0.4-17,1.4-25.2,3.2
	c-8.5,2.1-16.7,5.3-24.4,9.2l22.3,90l27.3-47.1V853V833.9z M1257.5,856.9c-1.4,8.5-5,16.7-10.3,23.4c-6.7,9.2-16.3,16.7-27.6,20.9
	l41.1,70.9l17.7-30.8L1257.5,856.9z M1282.6,941.6l25.9,104.9V897L1282.6,941.6z M1312.4,1046.5l25.9-104.9l-25.9-44.6V1046.5z
	 M1353.8,1287.4l4.3-7.8l-17-29.4l-25.5,103.1L1353.8,1287.4L1353.8,1287.4z M1360.6,1275.7l40.7-70.9
	c-11.3-4.3-20.9-11.3-27.6-20.9c-5-6.7-8.5-14.9-10.3-23.4l-20.9,84.3L1360.6,1275.7z M1405.9,1204.9l-43.2,74.8l42.5,73.7
	c10.6-3.9,19.8-11,26.6-19.8c6.7-9.2,10.6-20.6,10.6-32.6v-1.4l1.1-0.4c8.1-4.6,17.4-7.8,26.2-10.3c8.9-2.1,17.4-3.2,26.2-3.2v-70.9
	l-44.3-77.2l3.2-1.8l37.9,65.5l-25.5-102.8l-17,29.4l4.6,7.8l-3.2,1.8l-3.5-5.7l-41.1,70.9h0.4L1405.9,1204.9z M1402.7,1356.5
	L1402.7,1356.5l-42.2-73l-3.5,6l-1.8-1.1l1.8,1.1l-44.6,77.2v70.5c8.9,0.4,17.7,1.4,26.2,3.5c9.2,2.1,18.1,5.7,26.6,9.9l1.1,0.7v1.1
	c0,12,3.9,23.4,10.6,33c6.4,8.9,15.6,15.9,26.6,19.5l42.5-73.3L1402.7,1356.5z M1362,1149.9c-7.8-3.9-15.9-7.1-24.1-9.2
	c-8.5-1.8-17-2.8-25.5-3.2v19.1v36.1l27.3,47.1L1362,1149.9z M1308.5,1137.5c-8.5,0.4-17,1.4-25.2,3.2c-8.5,2.1-16.7,5.3-24.4,9.2
	l22.3,90l27.3-47.1v-36.1V1137.5z M1257.5,1160.6c-1.4,8.5-5,16.7-10.3,23.4c-6.7,9.2-16.3,16.7-27.6,20.9l41.1,70.9l17.7-30.8
	L1257.5,1160.6z M1282.6,1245.3l25.9,104.9v-149.5L1282.6,1245.3z M1312.4,1350.1l25.9-104.9l-25.9-44.6V1350.1z M791.2,528.5
	l4.6-7.8l-17-29.4L753.3,594L791.2,528.5L791.2,528.5z M797.9,516.8l41.1-71.2c-11.3-3.9-20.9-11.3-27.6-20.6
	c-5.3-7.1-8.9-15.2-10.3-23.7l-20.9,84.3L797.9,516.8z M799.7,390.6c-7.8-3.9-15.9-6.7-24.4-8.9c-8.1-2.1-16.7-3.2-25.2-3.2v19.1
	v35.8l27.3,47.5L799.7,390.6z M746.2,378.6c-8.5,0-17,1.1-25.5,3.2c-8.1,2.1-16.3,5-24.1,8.9l22.3,90l27.3-47.1v-35.8V378.6z
	 M695.2,401.3c-1.8,8.5-5.3,16.7-10.3,23.7c-6.7,9.2-16.3,16.7-27.6,20.6l40.7,71.2l18.1-31.2L695.2,401.3z M720.3,486.3l25.9,104.5
	V441.3L720.3,486.3z M750.1,590.8l25.9-104.5l-25.9-45V590.8z M1495.9,378.6c-8.5,0-17,1.1-25.2,3.2c-8.5,2.1-16.7,5-24.1,8.9l22,90
	l27.3-47.1v-35.8V378.6z M1445.2,401.3c-1.8,8.5-5.3,16.7-10.6,23.7c-6.7,9.2-16.3,16.7-27.6,20.6l41.1,71.2l18.1-31.2L1445.2,401.3
	z M1470.1,486.3l25.9,104.5V441.3L1470.1,486.3z M791.2,224.8l4.6-7.8l-17-29.4l-25.5,102.8L791.2,224.8L791.2,224.8z M797.9,213.1
	l41.1-71.2c-11.3-3.9-20.9-11.3-27.6-20.6c-5.3-7.1-8.9-15.2-10.3-23.7L780.2,182L797.9,213.1z M799.7,87
	c-7.8-3.9-15.9-6.7-24.4-8.9c-8.1-2.1-16.7-3.2-25.2-3.2v19.1v35.8l27.3,47.1L799.7,87z M746.2,74.9c-8.5,0-17,1.1-25.5,3.2
	c-8.1,2.1-16.3,5-24.1,8.9l22.3,90l27.3-47.1V94.1V74.9z M695.2,97.6c-1.8,8.5-5.3,16.7-10.3,23.7c-6.7,9.2-16.3,16.7-27.6,20.6
	l40.7,71.2l18.1-31.2L695.2,97.6z M720.3,182.7l25.9,104.5V137.7L720.3,182.7z M750.1,287.2l25.9-104.5l-25.9-45V287.2z
	 M791.2,832.1l4.6-7.8l-17-29.4l-25.5,102.8L791.2,832.1L791.2,832.1z M797.9,820.4l41.1-71.2c-11.3-3.9-20.9-11.3-27.6-20.6
	c-5.3-7.1-8.9-15.2-10.3-23.7l-20.9,84.3L797.9,820.4z M799.7,694.3c-7.8-3.9-15.9-6.7-24.4-8.9c-8.1-2.1-16.7-3.2-25.2-3.2v19.1
	v35.8l27.3,47.5L799.7,694.3z M746.2,682.2c-8.5,0-17,1.1-25.5,3.2c-8.1,2.1-16.3,5-24.1,8.9l22.3,90.4l27.3-47.5v-35.8V682.2z
	 M695.2,704.9c-1.8,8.5-5.3,16.7-10.3,23.7c-6.7,9.2-16.3,16.7-27.6,20.6l40.7,71.2l18.1-31.2L695.2,704.9z M720.3,790l25.9,104.5
	V745L720.3,790z M750.1,894.5L775.9,790l-25.9-45V894.5z M791.2,1135.8l4.6-7.8l-17-29.4l-25.5,102.8L791.2,1135.8L791.2,1135.8z
	 M797.9,1124.1l41.1-71.2c-11.3-3.9-20.9-11.3-27.6-20.6c-5.3-7.1-8.9-15.2-10.3-23.7l-20.9,84.3L797.9,1124.1z M799.7,997.9
	c-7.8-3.9-15.9-6.7-24.4-8.9c-8.1-2.1-16.7-3.2-25.2-3.2v19.1v35.8l27.3,47.5L799.7,997.9z M746.2,985.9c-8.5,0-17,1.1-25.5,3.2
	c-8.1,2.1-16.3,5-24.1,8.9l22.3,90.4l27.3-47.5V1005V985.9z M695.2,1008.6c-1.8,8.5-5.3,16.7-10.3,23.7
	c-6.7,9.2-16.3,16.7-27.6,20.6l40.7,71.2l18.1-31.2L695.2,1008.6z M720.3,1093.6l25.9,104.5v-149.5L720.3,1093.6z M750.1,1198.1
	l25.9-104.5l-25.9-45V1198.1z M791.2,1439.4l4.6-7.8l-17-29.4L753.3,1505L791.2,1439.4L791.2,1439.4z M797.9,1427.7l41.1-70.9
	c-11.3-4.3-20.9-11.7-27.6-20.9c-5.3-7.1-8.9-15.2-10.3-23.7l-20.9,84.3L797.9,1427.7z M799.7,1301.6c-7.8-3.9-15.9-6.7-24.4-8.9
	c-8.1-2.1-16.7-3.2-25.2-3.2v19.1v35.8l27.3,47.5L799.7,1301.6z M746.2,1289.5c-8.5,0-17,1.1-25.5,3.2c-8.1,2.1-16.3,5-24.1,8.9
	l22.3,90.4l27.3-47.5v-35.8V1289.5z M695.2,1312.2c-1.8,8.5-5.3,16.7-10.3,23.7c-6.7,9.2-16.3,16.7-27.6,20.6l40.7,71.2l18.1-31.2
	L695.2,1312.2z M720.3,1397.3l25.9,104.9v-149.9L720.3,1397.3z M750.1,1502.1l25.9-104.9l-25.9-45V1502.1z M1495.9,74.9
	c-8.5,0-17,1.1-25.2,3.2c-8.5,2.1-16.7,5-24.1,8.9l22,90l27.3-47.1V94.1V74.9z M1445.2,97.6c-1.8,8.5-5.3,16.7-10.6,23.7
	c-6.7,9.2-16.3,16.7-27.6,20.6l41.1,71.2l18.1-31.2L1445.2,97.6z M1470.1,182.7l25.9,104.5V137.7L1470.1,182.7z M1495.9,682.2
	c-8.5,0-17,1.1-25.2,3.2c-8.5,2.1-16.7,5-24.1,8.9l22,90.4l27.3-47.5v-35.8V682.2z M1445.2,704.9c-1.8,8.5-5.3,16.7-10.6,23.7
	c-6.7,9.2-16.3,16.7-27.6,20.6l41.1,71.2l18.1-31.2L1445.2,704.9z M1470.1,790l25.9,104.5V745L1470.1,790z M1495.9,985.9
	c-8.5,0-17,1.1-25.2,3.2c-8.5,2.1-16.7,5-24.1,8.9l22,90.4l27.3-47.5V1005V985.9z M1445.2,1008.6c-1.8,8.5-5.3,16.7-10.6,23.7
	c-6.7,9.2-16.3,16.7-27.6,20.6l41.1,71.2l18.1-31.2L1445.2,1008.6z M1470.1,1093.6l25.9,104.5v-149.5L1470.1,1093.6z M1495.9,1289.5
	c-8.5,0-17,1.1-25.2,3.2c-8.5,2.1-16.7,5-24.1,8.9l22,90.4l27.3-47.5v-35.8V1289.5z M1445.2,1312.2c-1.8,8.5-5.3,16.7-10.6,23.7
	c-6.7,9.2-16.3,16.7-27.6,20.6l41.1,71.2l18.1-31.2L1445.2,1312.2z M1470.1,1397.3l25.9,104.9v-149.9L1470.1,1397.3z"/>
</svg>
