<svg id="Capa_1" data-name="Capa 1" xmlns="http://www.w3.org/2000/svg" viewBox="0 0 512 512"><defs><style>.cls-1{fill:#dddaec;}.cls-2{fill:#c3d5ef;}.cls-3,.cls-4{fill:none;stroke:#1e1e1e;stroke-miterlimit:10;stroke-width:5px;}.cls-3{stroke-linecap:round;}.cls-5{fill:#bee86e;}.cls-6{fill:#afd755;}.cls-7{fill:#e6646e;}.cls-8{fill:#ffc850;}.cls-9{fill:#ffdc64;}.cls-10{fill:#fff082;}</style></defs><path class="cls-1" d="M133,233.76,76.11,216.11a13.64,13.64,0,0,1-9.57-14.31C69,176.38,80.22,115,133,98.14c67.13-21.48,69.45-18.8,117.3-20.14s95.46,10.74,117.31,20.14c20.87,9,53.05,23.47,64.08,102.59a13.66,13.66,0,0,1-9.5,14.89c-30.58,9.52-54.58,18.14-54.58,18.14V434.34c0,4.27-6,7.73-13.49,7.73H146.52c-7.45,0-13.49-3.46-13.49-7.73V233.76Z"/><path class="cls-2" d="M194.75,80.54c0,28.63,28.44,57,58.21,53.16,49.32-6.41,53-51.9,53-51.9-16.53-2.43-24.06-2.88-51.67-3.88C226.06,76.89,194.75,80.54,194.75,80.54Z"/><path class="cls-3" d="M368.84,172.64V432c0,5.84-6,10.57-13.49,10.57H147.72c-7.45,0-13.49-4.73-13.49-10.57V172.64"/><path class="cls-4" d="M304.69,81c0,28.63-24.34,51.84-54.37,51.84S196,109.67,196,81"/><path class="cls-4" d="M134.23,234.26,77.31,216.61a13.64,13.64,0,0,1-9.57-14.31c2.41-25.42,13.68-86.76,66.49-103.66,67.13-21.48,69.45-18.8,117.3-20.14S347,89.24,368.84,98.64c20.87,9,53.05,23.47,64.08,102.59a13.66,13.66,0,0,1-9.5,14.89c-30.58,9.52-54.58,18.14-54.58,18.14"/><line class="cls-4" x1="67.68" y1="188.62" x2="132.84" y2="206.82"/><line class="cls-4" x1="430.89" y1="188.62" x2="368.84" y2="206.82"/><path class="cls-5" d="M319.22,263.48a61.8,61.8,0,0,0,15.37-15.93,2.71,2.71,0,0,0-.24-3.22,58,58,0,0,0-19.5-13.71l-39.3,17.46Z"/><path class="cls-6" d="M280.61,249.86l38.61,13.62a61.8,61.8,0,0,0,15.37-15.93,2.66,2.66,0,0,0,.35-1.92Z"/><path class="cls-5" d="M204.78,298c-10.15,13.67-11.67,31.38-6.15,46.17a2.75,2.75,0,0,0,2.72,1.78c13.36-.84,27.54-8,36.52-17.62Z"/><path class="cls-6" d="M204.78,298c-10.15,13.67-11.67,31.38-6.15,46.17a2.71,2.71,0,0,0,.9,1.18l21.24-32.69Z"/><path class="cls-5" d="M296.24,306.22c.43,12.26-4.27,23.84-11.14,33.51a2.76,2.76,0,0,1-2.75,1.12C269.7,338.47,258,330.68,249.94,323l8.15-56.58Z"/><path class="cls-6" d="M249.94,323c7.82,7.43,19.14,15,31.4,17.56L257.4,271.22Z"/><path class="cls-7" d="M314.34,255.81c-6.83-4.06-16.43-5.93-26.23-6.55l.63-.23c9-2.6,17.52-6.28,22.89-11.14,10.58-9.55,10.55-26.82-.06-38.58s-27.79-13.54-38.37-4c-3.7,3.34-7,8.24-9.82,13.78.14-6.13-.54-12.66-2.1-17.23-4.61-13.49-20.49-20.28-35.48-15.16s-23.41,20.2-18.8,33.69a55.19,55.19,0,0,0,2.83,5.88L207.46,222a36.28,36.28,0,0,0-7.78-1.57c-14.21-1.09-26.71,10.83-27.92,26.63s9.33,29.47,23.54,30.56c7.93.61,17.34-1.92,26.43-5.71-7.4,6.59-14,14.13-16.83,21.28-5.24,13.25,2.45,28.72,17.17,34.54s30.92-.2,36.16-13.45c3.87-9.78,3.39-25.86,1.25-38.87,4.28,8.38,16,24,25.56,29.72,12.25,7.28,28.75,2.14,36.84-11.47S326.59,263.1,314.34,255.81Z"/><circle class="cls-8" cx="206.08" cy="227.66" r="6.89"/><circle class="cls-9" cx="214.11" cy="219.5" r="6.89"/><circle class="cls-10" cx="215.71" cy="230.71" r="6.89"/><path d="M290.07,276.45l-4.23-3a2.58,2.58,0,1,0-3,4.22l4.23,3a2.55,2.55,0,0,0,1.48.47,2.58,2.58,0,0,0,1.49-4.69Z"/><path d="M239.58,209.08a2.58,2.58,0,0,0-4.89,1.66l1.26,3.7a2.59,2.59,0,0,0,2.45,1.75,2.73,2.73,0,0,0,.83-.14,2.58,2.58,0,0,0,1.61-3.28Z"/><path d="M337.65,244.26a50,50,0,0,0-17.54-14.14,28.52,28.52,0,0,0,2-10.69,33.56,33.56,0,0,0-29.49-32.67,27,27,0,0,0-21.17,6.65,39.4,39.4,0,0,0-5.91,6.91,39.91,39.91,0,0,0-1.84-9.28,27,27,0,0,0-15.27-16.1,33.56,33.56,0,0,0-41.65,14.22,27,27,0,0,0-2.24,22.07,35,35,0,0,0,1.87,4.39c0,.09-.1.18-.14.27a8,8,0,0,0-.81,2.88,37,37,0,0,0-5.6-.92c-15.61-1.19-29.38,11.82-30.69,29a32.76,32.76,0,0,0,6.51,22.57,27,27,0,0,0,19.41,10.76c.86.07,1.74.1,2.63.1a53.35,53.35,0,0,0,14.06-2.15c-3.82,4.29-7.35,9.16-9.3,14.1a26.25,26.25,0,0,0-1.46,5.24C191.41,312,190.1,330.58,197,347a2.59,2.59,0,0,0,2.38,1.58h0a53.25,53.25,0,0,0,37.94-16.26,30.33,30.33,0,0,0,12.94-4.58c5.63,4.91,18.09,14.17,33.49,16l.31,0a2.6,2.6,0,0,0,2-1c8.27-10.54,12.5-21.22,12.6-31.78,9.84-.54,19.61-6.27,25.39-16,6.37-10.73,6.14-23.42.42-32.64a50.41,50.41,0,0,0,13.34-15.19A2.57,2.57,0,0,0,337.65,244.26ZM202.09,227.12a3,3,0,1,1-.15,2.33A3,3,0,0,1,202.09,227.12ZM214,229.74a3.07,3.07,0,0,1,1.76-1.54,3,3,0,0,1,3.86,1.9h0a3,3,0,1,1-5.62-.36Zm10.11,5a8.48,8.48,0,0,0,.63-1.79l9.57,7.82-10.86-4.93A8.66,8.66,0,0,0,224.11,234.7Zm-7.72-13.85a3,3,0,0,1-5.62-.36,3.05,3.05,0,0,1,1.9-3.87,3,3,0,0,1,1-.16,3,3,0,0,1,2.74,4.39Zm-15,87a30.83,30.83,0,0,0,9.45,15.89l-1.92,2.93a2.59,2.59,0,0,0,.75,3.58,2.63,2.63,0,0,0,1.41.42,2.59,2.59,0,0,0,2.16-1.17l1.69-2.59a34.5,34.5,0,0,0,14.91,5.4,48.53,48.53,0,0,1-28.73,11A47.83,47.83,0,0,1,201.37,307.84Zm81.57,30.54c-12.74-1.95-23.23-9.44-28.53-13.92a26.17,26.17,0,0,0,6.22-9.24c1.93-4.88,3-11.6,3.06-19.54l7.85,23a2.57,2.57,0,0,0,2.44,1.75,2.45,2.45,0,0,0,.83-.14,2.58,2.58,0,0,0,1.61-3.27l-8.2-24c4.75,5.78,10.31,11.26,15.5,14.35a26,26,0,0,0,9.83,3.41C293.5,319.82,289.94,329.1,282.94,338.38Zm36.72-46.05c-7.35,12.37-22.29,17.11-33.3,10.57-9.57-5.69-20.94-21-24.27-28.56a2.55,2.55,0,0,0-.25-.46c-.23-1.3-.47-2.58-.73-3.85a2.58,2.58,0,0,0-5.05,1.06c3.93,18.83,2.72,34.78-.23,42.23-3.48,8.8-12.42,14-22.25,14a28.58,28.58,0,0,1-10.56-2C209.64,320,202.59,306,207.3,294.13c2.32-5.88,7.78-12.79,15.79-20,3.51-1.48,6.81-3.07,9.73-4.6a2.58,2.58,0,1,0-2.39-4.57c-13.72,7.16-26.13,10.74-34.93,10.07a21.91,21.91,0,0,1-15.71-8.77,27.63,27.63,0,0,1-5.46-19c1.08-14.06,11.94-24.79,24.41-24.28a8.31,8.31,0,0,0-1.29,1.89,8.22,8.22,0,0,0,7.36,11.83,8.12,8.12,0,0,0,2.66-.45,8.31,8.31,0,0,0,2.14-1.09,8.08,8.08,0,0,0,3.51,3.31,8.24,8.24,0,0,0,3.61.85,8.57,8.57,0,0,0,1.59-.16l24.24,11-36,.53a2.59,2.59,0,0,0-2.54,2.58v0a2.58,2.58,0,0,0,2.58,2.54h0l41.54-.61-12.25,39.7a2.54,2.54,0,0,0-.11.76,2.58,2.58,0,0,0,1.82,2.47,2.5,2.5,0,0,0,.76.11,2.57,2.57,0,0,0,2.46-1.82l12.26-39.7,20.76,14.62a2.59,2.59,0,0,0,3.6-.62,2.58,2.58,0,0,0-.63-3.6L256.1,252.53l33.25-24.92a2.59,2.59,0,0,0,1-2.07,2.55,2.55,0,0,0-.52-1.54,2.58,2.58,0,0,0-3.61-.52L253,248.4l-8.86-26a2.58,2.58,0,1,0-4.88,1.67l6.63,19.43L221,223.17l0,0a8.13,8.13,0,0,0,.4-6.27A8.22,8.22,0,0,0,211,211.74l-.59.23c-.38-.82-.7-1.63-1-2.4a21.87,21.87,0,0,1,1.87-17.9,28.39,28.39,0,0,1,35.11-12,21.91,21.91,0,0,1,12.42,13c1.41,4.15,2,9.59,1.75,16.18a127.24,127.24,0,0,0-8.17,21.88,2.58,2.58,0,0,0,5,1.37c4.38-15.89,10.94-28.93,17.54-34.89a21.85,21.85,0,0,1,17.18-5.34A28.38,28.38,0,0,1,317,219.44,21.85,21.85,0,0,1,309.9,236c-4.5,4.07-12.07,7.72-21.88,10.58l-.18.05c-3.87-.22-8.15-.28-12.9-.1a2.58,2.58,0,0,0,.19,5.16c9.55-.36,27.18,0,37.89,6.36C324,264.58,327,280,319.66,292.33Zm1.74-34.1a26,26,0,0,0-5.74-4.63,38.87,38.87,0,0,0-6.88-3.17l7.68-.57a2.58,2.58,0,0,0-.38-5.15l-11.22.84a41.4,41.4,0,0,0,8.5-5.74,26.23,26.23,0,0,0,4.37-5.12,44.78,44.78,0,0,1,14.75,11.4A45.33,45.33,0,0,1,321.4,258.23Z"/></svg>