<svg id="Capa_1" data-name="Capa 1" xmlns="http://www.w3.org/2000/svg" viewBox="0 0 512 512"><defs><style>.cls-1{fill:#1e1e1e;}.cls-2{fill:#d1a08f;}.cls-3{fill:#c68d7a;}.cls-4{fill:#dddaec;}.cls-5{fill:#a6e7f0;}.cls-6{fill:#80d261;}.cls-7{fill:#ade194;}.cls-8{fill:#7d4935;}.cls-9{fill:#fdc8a2;}.cls-10{fill:#fdb683;}.cls-11{fill:#426887;}.cls-12{fill:#395d7b;}.cls-13{fill:#844e3a;}.cls-14{fill:#fcb079;}.cls-15{fill:#fef056;}</style></defs><path class="cls-1" d="M413.31,424.42H98.69A9.73,9.73,0,0,1,89,414.71V402.4a9.73,9.73,0,0,1,9.71-9.71H413.31A9.73,9.73,0,0,1,423,402.4v12.31A9.73,9.73,0,0,1,413.31,424.42ZM98.69,401.6a.8.8,0,0,0-.8.8v12.31a.8.8,0,0,0,.8.8H413.31a.8.8,0,0,0,.8-.8V402.4a.8.8,0,0,0-.8-.8Z"/><path class="cls-2" d="M321.11,355.71,386.49,483.3a3.73,3.73,0,0,0,3.23,2.18h10c2.53,0,4.36-3,3.65-5.92L372.75,352a4,4,0,0,0-3.66-3.32H324.34C321.35,348.65,319.53,352.63,321.11,355.71Z"/><path class="cls-1" d="M399.75,489.93h-10a8.18,8.18,0,0,1-7.2-4.6L317.14,357.74a9.83,9.83,0,0,1,.35-9.56,8,8,0,0,1,6.85-4h44.75a8.43,8.43,0,0,1,8,6.74l30.65,127.59a9.79,9.79,0,0,1-1.74,8.29A7.93,7.93,0,0,1,399.75,489.93ZM390.33,481h8.76a1.24,1.24,0,0,0,0-.42L368.44,353.1H325a.89.89,0,0,0,.07.57Z"/><path class="cls-2" d="M216.77,358.34,137.39,485.93a4.63,4.63,0,0,1-3.93,2.18H121.29a4.61,4.61,0,0,1-4.43-5.91l37.21-127.59a4.64,4.64,0,0,1,4.44-3.33h54.33A4.62,4.62,0,0,1,216.77,358.34Z"/><path class="cls-1" d="M133.46,492.57H121.29A9.07,9.07,0,0,1,112.58,481L149.8,353.36a9.11,9.11,0,0,1,8.71-6.53h54.33a9.07,9.07,0,0,1,7.71,13.87h0L141.17,488.29A9,9,0,0,1,133.46,492.57Zm25-136.83a.17.17,0,0,0-.16.12L121.13,483.45a.13.13,0,0,0,0,.14.14.14,0,0,0,.13.07h12.17a.16.16,0,0,0,.14-.08L213,356h0c0-.05.06-.08,0-.17a.14.14,0,0,0-.15-.08Z"/><rect class="cls-3" x="70.03" y="335.62" width="371.93" height="29.28" rx="8.41"/><rect class="cls-4" x="90.16" y="34.18" width="331.69" height="299"/><path class="cls-1" d="M426.3,337.64H85.7V29.73H426.3ZM94.61,328.73H417.39V38.64H94.61Z"/><rect class="cls-5" x="104.94" y="55.1" width="302.12" height="258.54"/><path class="cls-1" d="M430.56,369.36H81.44A15.88,15.88,0,0,1,65.58,353.5V347a15.87,15.87,0,0,1,15.86-15.86H430.56A15.87,15.87,0,0,1,446.42,347v6.47A15.88,15.88,0,0,1,430.56,369.36ZM81.44,340.08a7,7,0,0,0-7,6.95v6.47a7,7,0,0,0,7,6.95H430.56a7,7,0,0,0,6.95-6.95V347a7,7,0,0,0-6.95-6.95Z"/><path class="cls-6" d="M314.1,208.9a9.39,9.39,0,0,0-9.47-.23l-61.88,34.14L217,255.94l3.29,54,183.64,2.13v-49Z"/><path class="cls-1" d="M410.24,317.6l-189.82-2.2-3.59-59.07,27.62-14.08,61.78-34.08a12.59,12.59,0,0,1,12.67.29l91.34,55.11Zm-183.82-8.5,177.45,2.06v-44l-88.3-53.28a6.21,6.21,0,0,0-6.26-.15l-61.88,34.14-24,12.23Z"/><path class="cls-7" d="M400.1,310.34H114.24a4.86,4.86,0,0,1-4.81-4.89V269.82l114.63-64.37a8.47,8.47,0,0,1,8.68.21l52,32.53Z"/><path class="cls-1" d="M403.24,315.81H112.3a8.09,8.09,0,0,1-8.08-8.08V272.1a3.19,3.19,0,0,1,1.64-2.79l116.67-64.37a12,12,0,0,1,12,.29L404.9,309.91a3.19,3.19,0,0,1-1.66,5.9ZM110.58,274v33.76a1.72,1.72,0,0,0,1.72,1.71H392L231.24,210.65a5.59,5.59,0,0,0-5.63-.13Z"/><path class="cls-8" d="M350.4,140.8V267.19H257.92V140.8a46.24,46.24,0,1,1,92.48,0Z"/><path class="cls-9" d="M368.89,261.78v48.56H233.26V261.78a24.65,24.65,0,0,1,18.68-23.92l21.3-5.33a12.32,12.32,0,0,0,9.34-12V193.21h37v6.16a39.47,39.47,0,0,0,29.91,38.3l.73.19A24.65,24.65,0,0,1,368.89,261.78Z"/><path class="cls-10" d="M321.55,211.7H294.91a37,37,0,0,1-12.33-2.1V193.21h37v6.16A39.14,39.14,0,0,0,321.55,211.7Z"/><path class="cls-11" d="M368.89,261.78v48.56H233.26V261.78a24.65,24.65,0,0,1,18.68-23.92l6-1.5v12.33a18.5,18.5,0,0,0,18.5,18.5H331.9a18.5,18.5,0,0,0,18.5-18.5V237.91A24.64,24.64,0,0,1,368.89,261.78Z"/><path class="cls-12" d="M251.76,285.68h12.33v24.66H251.76Z"/><path class="cls-12" d="M331.9,285.68h12.33v24.66H331.9Z"/><path class="cls-9" d="M319.57,119.22v80.15H294.91a37,37,0,0,1-37-37V140.8a46,46,0,0,1,5.34-21.58Z"/><path class="cls-13" d="M350.4,140.8v97.1a40.69,40.69,0,0,1-30.83-39.48v-79.2H263.26A46.24,46.24,0,0,1,350.4,140.8Z"/><path class="cls-13" d="M305.86,151.11c-6.3,0-9.7-2.05-10.87-2.93l-.66-.45a5.34,5.34,0,1,1,6.09-8.78l.77.53c.27.19.21.09.31.2.64.31,3.26,1.31,8.71.32a5.34,5.34,0,1,1,1.91,10.51A34.59,34.59,0,0,1,305.86,151.11Zm-4.24-11.3Z"/><path class="cls-13" d="M274.83,151.05c-6.31,0-9.71-2.05-10.88-2.93l-.66-.45a5.34,5.34,0,1,1,6.09-8.78l.77.53c.27.19.21.09.31.2.64.31,3.26,1.31,8.71.32a5.34,5.34,0,1,1,1.91,10.51A34.57,34.57,0,0,1,274.83,151.05Zm-4.25-11.3Z"/><path class="cls-14" d="M292.36,179.07h0a3.61,3.61,0,0,1-3.61-3.61v-5.11a3.61,3.61,0,0,1,3.61-3.61h0a14.73,14.73,0,0,0,8.26-2.5,3.54,3.54,0,0,1,4.49.37l3.74,3.74a3.63,3.63,0,0,1-.47,5.51A27,27,0,0,1,292.36,179.07Z"/><circle class="cls-15" cx="184.61" cy="124.97" r="22.96" transform="translate(31.68 287.17) rotate(-80.78)"/><path class="cls-1" d="M186.17,151.11A26.15,26.15,0,1,1,212.32,125,26.17,26.17,0,0,1,186.17,151.11Zm0-45.92A19.78,19.78,0,1,0,206,125,19.8,19.8,0,0,0,186.17,105.19Z"/><path class="cls-1" d="M410.24,316.83H101.76V51.92H410.24Zm-302.11-6.37H403.87V58.29H108.13Z"/></svg>