<svg id="Capa_1" data-name="Capa 1" xmlns="http://www.w3.org/2000/svg" viewBox="0 0 512 512"><defs><style>.cls-1{fill:#dddaec;}.cls-2{fill:#53bce9;}.cls-3{fill:#fcb65f;}.cls-4{fill:#fff;}.cls-5{fill:#fa3f68;}.cls-6{fill:#e5e9ea;}.cls-7{fill:#566368;}.cls-8{fill:#b0b4b2;}.cls-9{fill:#515055;}</style></defs><rect class="cls-1" x="109.52" y="49.63" width="294.9" height="434.45" rx="3.74"/><polygon class="cls-2" points="127.21 466.32 127.21 70.87 387.26 70.87 387.26 437.32 387.26 466.32 127.21 466.32"/><path class="cls-3" d="M268.8,299.39c1.42-18.77,7.11-37.67,12.15-48.38-15.31-20.3-10.79-51.41-21.94-62.57-9.67-9.67-37.76,1.8-58,3.81-7.91.78-14.62.12-18.55-3.81-14-14,9.31-35.16,24.82-50.67,17.06-17.06,58.94-50.67,86.86-11.37s47.57,11.37,52.74,48.6S320,245.31,332.42,291.85s54.84,52.73,54.84,52.73V466.32h-61c-19-35.95-20.16-7.47-65.15-52.46C241.2,394,240.39,369.33,245.7,348,252.38,321,268.8,299.39,268.8,299.39Z"/><path class="cls-4" d="M235,270.82a53.27,53.27,0,0,1-34-78.57c20.22-2,48.31-13.48,58-3.81C270.16,199.6,265.64,230.71,281,251c-5,10.71-10.73,29.61-12.15,48.38,0,0-16.42,21.65-23.1,48.6-44.32-9-40.19-30.58-40.19-30.58C220.39,297.38,235,279.57,235,270.82Z"/><path class="cls-5" d="M177.31,391.12c-10.46-18.61,9.07-48,28.2-73.71,0,0-4.13,21.56,40.19,30.58-5.31,21.34-4.5,46,15.37,65.88,45,45,46.16,16.5,65.15,52.45H200.06l-4.74-57.42h0C188.69,405.57,182.33,400,177.31,391.12Z"/><path class="cls-6" d="M358.79,115.54h-21a7.76,7.76,0,1,1,0-15.51h21a7.76,7.76,0,1,1,0,15.51Z"/><path class="cls-6" d="M317.43,115.54a7.76,7.76,0,1,1,7.67-6.62A7.82,7.82,0,0,1,317.43,115.54Z"/><path class="cls-7" d="M241.26,226.87c-9.16,0-14.09-3-15.79-4.25l-1-.66a7.76,7.76,0,0,1,8.84-12.75l1.12.78c.4.28.3.13.45.29.93.44,4.73,1.9,12.64.46A7.75,7.75,0,1,1,250.33,226,50.44,50.44,0,0,1,241.26,226.87Zm-6.16-16.4Z"/><path class="cls-7" d="M196.21,226.78c-9.16,0-14.09-3-15.79-4.25l-1-.66a7.75,7.75,0,0,1,8.84-12.74l1.12.77c.4.28.3.13.45.29.93.45,4.73,1.9,12.64.46a7.75,7.75,0,1,1,2.77,15.26A50.44,50.44,0,0,1,196.21,226.78Zm-6.16-16.4Z"/><path d="M398.2,490.49H112.36a9.21,9.21,0,0,1-9.2-9.2V55.9a9.21,9.21,0,0,1,9.2-9.2H398.2a9.21,9.21,0,0,1,9.2,9.2V481.29A9.21,9.21,0,0,1,398.2,490.49Zm-285.69-9.35H398.05V56.05H112.51Z"/><rect class="cls-8" x="172.78" y="14.56" width="5.16" height="31.34" rx="0.32"/><rect class="cls-9" x="158.56" y="37.67" width="33.58" height="26.12" rx="1.28"/><rect class="cls-8" x="333.77" y="13.05" width="5.16" height="31.34" rx="0.32"/><rect class="cls-9" x="319.55" y="36.17" width="33.58" height="26.12" rx="1.28"/></svg>