<svg id="Capa_1" data-name="Capa 1" xmlns="http://www.w3.org/2000/svg" viewBox="0 0 512 512"><defs><style>.cls-1{fill:#dddaec;}.cls-2{fill:#f9f6f9;}.cls-3{fill:#e4989d;}.cls-4{fill:#dd636e;}.cls-5{fill:#da4a54;}.cls-6{fill:#d0cee7;}</style></defs><path class="cls-1" d="M383.63,308.48H356.1A14.45,14.45,0,0,1,341.64,294V170.2a14.45,14.45,0,0,1,14.46-14.46H426a40.93,40.93,0,0,1,40.88,40.88v28.63a83.32,83.32,0,0,1-83.24,83.23Zm-13.07-28.91h13.07A54.38,54.38,0,0,0,438,225.25V196.62a12,12,0,0,0-12-12H370.56v94.91Z"/><path d="M383.68,311.07H356.14a16.42,16.42,0,0,1-16.4-16.41V170.83a16.42,16.42,0,0,1,16.4-16.4H426a42.88,42.88,0,0,1,42.83,42.83v28.63A85.29,85.29,0,0,1,383.68,311.07ZM356.14,158.32a12.53,12.53,0,0,0-12.51,12.51V294.66a12.52,12.52,0,0,0,12.51,12.51h27.54A81.37,81.37,0,0,0,465,225.89V197.26A39,39,0,0,0,426,158.32Zm27.54,123.83h-15v-98.8H426a13.93,13.93,0,0,1,13.91,13.91v28.63A56.33,56.33,0,0,1,383.68,282.15Zm-11.13-3.9h11.13A52.42,52.42,0,0,0,436,225.89V197.26a10,10,0,0,0-10-10H372.55Z"/><path class="cls-2" d="M402.22,146.82v44c-26.55,41.16-49.86,41.16-99.72,41.16s-49.86,31.15-99.72,31.15S126,197.18,103.06,159.63V146.82a15.56,15.56,0,0,1,15.56-15.56h268A15.56,15.56,0,0,1,402.22,146.82Z"/><path class="cls-3" d="M402.22,190.78v54.46A100.73,100.73,0,0,1,301.49,346h-97.7A100.73,100.73,0,0,1,103.06,245.24V159.63c49.85,0,49.85,31.15,99.72,31.15s49.86-31.15,99.72-31.15,49.86,31.15,99.72,31.15Z"/><path class="cls-4" d="M192.54,232.75l-24.77,24.77A36.33,36.33,0,0,1,178.17,284a41.6,41.6,0,1,0,40.19-40.82,35,35,0,0,1-25.82-10.42Z"/><path class="cls-5" d="M249.17,314.16c-.4.4-.81.79-1.23,1.18A41.59,41.59,0,0,1,178.18,284a36.36,36.36,0,0,0-10.41-26.47l8.48-8.48c7,7,12.63,14.52,15.9,21,3.84,7.55,10.85,16.8,20,25.61,15.3,14.79,31.31,23,36.65,18.88a4.71,4.71,0,0,0,.41-.35Z"/><path class="cls-4" d="M337.51,257.52l-24.77-24.77a36.33,36.33,0,0,1-26.47,10.4,41.6,41.6,0,1,0,40.82,40.19,35,35,0,0,1,10.42-25.82Z"/><path class="cls-5" d="M256.1,314.15c-.4-.4-.79-.81-1.18-1.23a41.59,41.59,0,0,1,31.34-69.76,36.36,36.36,0,0,0,26.47-10.41l8.48,8.48c-7,7-14.52,12.63-21,15.9-7.55,3.84-16.8,10.85-25.61,20-14.78,15.3-23,31.31-18.88,36.65a4.71,4.71,0,0,0,.35.41Z"/><path d="M301.49,347.93h-97.7A102.79,102.79,0,0,1,101.12,245.25V146.84a17.52,17.52,0,0,1,17.51-17.51h268a17.52,17.52,0,0,1,17.5,17.51v98.41A102.79,102.79,0,0,1,301.49,347.93ZM105,159.65v85.6A98.9,98.9,0,0,0,203.79,344h97.7a98.91,98.91,0,0,0,98.79-98.79V146.84a13.63,13.63,0,0,0-13.61-13.62h-268A13.64,13.64,0,0,0,105,146.84Z"/><path class="cls-6" d="M110.22,371.69a27.53,27.53,0,0,0,27.3,24H367.76a27.54,27.54,0,0,0,27.31-24L252.64,352.91Z"/><path class="cls-1" d="M406.67,334.13H98.61a18.79,18.79,0,0,0,0,37.57H406.67a18.79,18.79,0,1,0,0-37.57Z"/><path d="M400.09,192c-25.27,0-38.08-8-50.48-15.75-12.67-7.92-24.64-15.4-49.24-15.4s-36.57,7.48-49.25,15.4C238.73,183.94,225.91,192,200.64,192s-38.08-8-50.48-15.75c-12.67-7.92-24.65-15.4-49.24-15.4v-2.34c25.26,0,38.08,8,50.48,15.75,12.67,7.92,24.64,15.4,49.24,15.4s36.57-7.48,49.25-15.39c12.39-7.75,25.21-15.76,50.48-15.76s38.08,8,50.48,15.76c12.67,7.91,24.64,15.39,49.24,15.39Z"/><path d="M367.77,397.62H137.52A29.55,29.55,0,0,1,108.29,372l3.86-.51a25.65,25.65,0,0,0,25.37,22.29H367.77a25.65,25.65,0,0,0,25.37-22.29L397,372A29.56,29.56,0,0,1,367.77,397.62Z"/><path d="M406.67,373.64H98.61a20.73,20.73,0,0,1,0-41.46H406.67a20.73,20.73,0,0,1,0,41.46ZM98.61,336.07a16.84,16.84,0,0,0,0,33.68H406.67a16.84,16.84,0,0,0,0-33.68Z"/></svg>