<?xml version="1.0" encoding="utf-8"?>
<!-- Generator: Adobe Illustrator 25.0.1, SVG Export Plug-In . SVG Version: 6.00 Build 0)  -->
<svg version="1.1" id="Capa_1" xmlns="http://www.w3.org/2000/svg" xmlns:xlink="http://www.w3.org/1999/xlink" x="0px" y="0px"
	 viewBox="0 0 496.1 496.1" style="enable-background:new 0 0 496.1 496.1;" xml:space="preserve">
<style type="text/css">
	.st0{fill:#F7F2F2;}
</style>
<g>
	<g>
		<path class="st0" d="M257.4,248L450.2,55.2c2.6-2.6,2.6-6.7,0-9.3c-2.6-2.6-6.7-2.6-9.3,0L248.1,238.7L55.3,45.9
			c-2.6-2.5-6.8-2.5-9.3,0.2c-2.5,2.6-2.5,6.6,0,9.1L238.8,248L46,440.8c-2.6,2.5-2.7,6.7-0.2,9.3c2.5,2.6,6.7,2.7,9.3,0.2
			c0.1-0.1,0.1-0.1,0.2-0.2l192.8-192.8l192.8,192.8c2.6,2.5,6.8,2.5,9.3-0.2c2.5-2.6,2.5-6.6,0-9.1L257.4,248z"/>
	</g>
</g>
</svg>
