<?xml version="1.0" encoding="utf-8"?>
<!-- Generator: Adobe Illustrator 25.0.1, SVG Export Plug-In . SVG Version: 6.00 Build 0)  -->
<svg version="1.1" id="Layer_1" xmlns="http://www.w3.org/2000/svg" xmlns:xlink="http://www.w3.org/1999/xlink" x="0px" y="0px"
	 viewBox="0 0 512 512" style="enable-background:new 0 0 512 512;" xml:space="preserve">
<path d="M131.8,493.8L18.2,380.2c-5.9-5.9-5.9-15.4,0-21.2l103-103l-103-103c-5.9-5.9-5.9-15.4,0-21.2L131.8,18.2
	c5.9-5.9,15.4-5.9,21.2,0l103,103l103-103c5.9-5.9,15.4-5.9,21.2,0l113.6,113.6c5.9,5.9,5.9,15.4,0,21.2l-103,103l103,103
	c5.9,5.9,5.9,15.4,0,21.2L380.2,493.8c-5.9,5.9-15.4,5.9-21.2,0l-103-103l-103,103C147.1,499.7,137.6,499.7,131.8,493.8z"/>
</svg>
