<svg id="Capa_1" data-name="Capa 1" xmlns="http://www.w3.org/2000/svg" viewBox="0 0 512 512"><defs><style>.cls-1{fill:#fcb65f;}</style></defs><rect class="cls-1" x="208.13" y="106.05" width="99.39" height="8"/><polygon class="cls-1" points="388.11 460.74 123.89 460.74 123.89 106.05 171.01 106.05 171.01 114.05 131.89 114.05 131.89 452.74 380.11 452.74 380.11 114.05 343.23 114.05 343.23 106.05 388.11 106.05 388.11 460.74"/><path class="cls-1" d="M210.63,124.62H172.16V95.49h38.47Zm-33.47-5h28.47V100.49H177.16Z"/><path class="cls-1" d="M343.5,124.62H305V95.49H343.5Zm-33.48-5H338.5V100.49H310Z"/><rect class="cls-1" x="188.9" y="61.59" width="5" height="36.4"/><rect class="cls-1" x="321.76" y="61.59" width="5" height="36.4"/><path class="cls-1" d="M369.63,443.92H142.22V130.47H369.63Zm-223.41-4H365.63V134.47H146.22Z"/><path class="cls-1" d="M370.13,444.53H318.79l-.7-1.33c-6.94-13.14-10.3-14.36-16.41-16.56-6.71-2.43-15.9-5.75-33.69-23.55-13.59-13.55-18-32-12.62-53.46,4.76-19.23,15.55-34.78,17.92-38a120,120,0,0,1,9-36.34c-6-8.61-7.89-19.09-9.6-28.4-1.5-8.13-2.8-15.15-6.31-18.67-4.2-4.2-15.72-1.68-26.87.76a147.68,147.68,0,0,1-16.12,2.92c-5,.49-12.08.64-16.4-3.68a13.07,13.07,0,0,1-4.08-9.5c0-10.23,11.12-21.24,20.92-30.94l2.41-2.4c9.51-9.52,28.28-25.25,47.06-23.66,9.43.79,17.56,5.89,24.14,15.16,10,14,18.32,16.39,25,18.3,7.53,2.13,14,4,16.32,20.51,1.85,13.31-2.06,25.62-6.21,38.65-5,15.85-10.26,32.24-5.07,51.7,9.11,34.12,40.18,39,40.5,39.08l2.14.31Zm-48.33-5h43.33V349.6a58.09,58.09,0,0,1-42.47-42.29c-5.57-20.87-.13-38,5.14-54.51,4-12.47,7.71-24.26,6-36.45C332,203.06,328.11,202,321.08,200s-16.75-4.75-27.74-20.22c-5.69-8-12.58-12.4-20.48-13.07-17.39-1.46-35.94,15-43.1,22.21l-2.43,2.42c-8.65,8.57-19.42,19.24-19.44,27.4a8.13,8.13,0,0,0,2.61,6c2.12,2.12,6.17,2.85,12.38,2.23a143.28,143.28,0,0,0,15.54-2.83c13-2.84,25.34-5.53,31.47.6,4.62,4.62,6,12.35,7.69,21.3,1.7,9.2,3.62,19.63,9.56,27.51l.91,1.2-.64,1.37c-3.81,8.09-8.13,22.56-9.2,36.66l0,.73-.45.59c-.12.16-12.49,16.63-17.48,36.8-5,19.91-1.16,36.31,11.29,48.73,17,17,25.59,20.11,31.86,22.37C310.56,424.53,314.74,426.54,321.8,439.53Z"/><path class="cls-1" d="M259.69,353.14l-2.35-.47C221,345.27,224.05,326.8,224.2,326l.11-.56.34-.46c1.8-2.43,3.59-4.81,5.34-7.14,7.77-10.33,15.16-20.16,16.71-25.65a43.58,43.58,0,0,1-31.55-39.12l5-.34a38.65,38.65,0,0,0,29.93,35.17l1.94.45v2c0,6.57-7.95,17.14-18,30.52-1.6,2.13-3.25,4.32-4.9,6.54,0,2.43,1.17,14,26.95,19.86,5-18.12,15-32.56,17.29-35.67a121.12,121.12,0,0,1,9-36.33c-6-8.61-7.92-19.11-9.64-28.42-1.51-8.12-2.8-15.13-6.32-18.65-4.2-4.19-15.72-1.68-26.86.76-5,1.09-10.12,2.21-14.82,2.78a39.13,39.13,0,0,0-3.6,9.54l-4.87-1.13a43.41,43.41,0,0,1,4.76-12l.64-1.11,1.27-.13a141.48,141.48,0,0,0,15.55-2.83c13-2.84,25.32-5.53,31.46.6,4.62,4.61,6.05,12.33,7.7,21.28,1.71,9.2,3.63,19.64,9.6,27.51l.91,1.21-.64,1.36c-3.82,8.18-8.14,22.68-9.2,36.67l-.05.73-.45.59c-.12.16-12.5,16.66-17.49,36.8Z"/><path class="cls-1" d="M324.42,444.53H220.09l-3.76-45.48a36.18,36.18,0,0,1-13.77-14.13h0c-8.94-15.91,6.69-39.26,22.05-59.91l6.51-8.75L229.07,327c0,.11-2,14.45,29.23,20.8l2.56.52-.64,2.54c-5,19.9-1.16,36.3,11.27,48.74,17,17,25.6,20.11,31.87,22.37,7.41,2.68,11.63,4.74,19.12,18.92Zm-99.73-5H316c-5.63-9.73-8.9-10.91-14.38-12.89-6.71-2.42-15.91-5.74-33.7-23.54-13.23-13.23-17.65-30.37-13.17-51-20.71-4.74-27.59-13.21-29.78-19.22-13.84,19.14-24.65,37.88-18.09,49.55a30.76,30.76,0,0,0,12.91,12.78l1.26.63Z"/><path class="cls-1" d="M253.14,255.42h0c-6.47,0-10.24-2-11.94-3.27l-.64-.42a7.3,7.3,0,0,1,8.24-12.06l.79.55.2.12c.62.23,2.86.89,7.27.08a7.31,7.31,0,0,1,2.64,14.37,37.85,37.85,0,0,1-6.55.63Zm-8.33-12.95a3.31,3.31,0,0,0-2,6l.69.45c1,.76,4,2.52,9.6,2.52a32.64,32.64,0,0,0,5.84-.56,3.32,3.32,0,0,0,2.66-3.85,3.31,3.31,0,0,0-3.85-2.65c-5.77,1-8.82,0-9.86-.48l-.43-.25-.17-.11-.76-.53A3.17,3.17,0,0,0,244.81,242.47Zm4.62-2.32.15.07A.45.45,0,0,0,249.43,240.15Z"/><path class="cls-1" d="M222.35,255.35h0c-6.46,0-10.24-2-11.93-3.26l-.64-.42a7.3,7.3,0,1,1,8.28-12l.75.51.21.12c.61.24,2.81.89,7.25.08a7.3,7.3,0,1,1,2.61,14.37,36.35,36.35,0,0,1-6.51.62Zm-8.46-13a3.3,3.3,0,0,0-1.88,6l.73.48c1,.75,4,2.51,9.6,2.51a32.4,32.4,0,0,0,5.81-.56A3.3,3.3,0,1,0,227,244.3c-5.82,1.06-8.84,0-9.87-.49l-.41-.24-.17-.12-.75-.51A3.32,3.32,0,0,0,213.89,242.35Zm4.74-2.26.16.07A.4.4,0,0,0,218.63,240.09Z"/></svg>