<svg id="Capa_1" data-name="Capa 1" xmlns="http://www.w3.org/2000/svg" viewBox="0 0 512 512"><defs><style>.cls-1{fill:#fcb65f;}</style></defs><path class="cls-1" d="M239.15,347.46c-24,0-47.52-10.08-66.27-28.5-25.45-25-40-62.33-40-102.41V134.43H379.17V216c0,34.5-10.79,67.06-30.39,91.67-19.79,24.86-46.28,38.8-74.59,39.23l-33.49.54Zm-98.32-205v74.12c0,37.95,13.73,73.2,37.66,96.7,17.24,16.94,38.74,26.21,60.67,26.21h1.4l6.14-.11,27.37-.43c25.87-.4,50.18-13.26,68.45-36.21,18.48-23.2,28.65-54,28.65-86.69V142.43Z"/><path class="cls-1" d="M368.19,271.75,365.74,260l14.71-3.07c27.86-15.47,33.91-27.47,33.91-66.37,0-10.45-6.33-18.95-14.11-18.95H374.81v-12h25.44c14.4,0,26.11,13.88,26.11,30.95,0,43.56-8.41,59.45-40.91,77.32l-.78.43Z"/><path class="cls-1" d="M256,383.9c-84.27,0-173.84-16.21-173.84-46.25,0-9.65,10.16-27.55,78.22-39l1.32,7.89c-22.24,3.73-40.7,8.78-53.38,14.58-11.71,5.37-18.16,11.23-18.16,16.51,0,10.6,24.13,20.37,46.71,26C168.64,371.55,211,375.9,256,375.9s87.36-4.35,119.13-12.26c22.58-5.62,46.71-15.39,46.71-26,0-5.4-6.7-11.37-18.88-16.83-13.16-5.9-32.25-11-55.21-14.68l1.27-7.9c70.32,11.36,80.82,29.57,80.82,39.41,0,17.05-28.7,27.77-52.78,33.76C344.68,379.46,301.68,383.9,256,383.9Z"/><path class="cls-1" d="M374.81,194c-19.84,0-30.61-6.5-41-12.79-10.65-6.43-21.66-13.09-43.34-13.09s-30.25,6.3-39.45,13c-8.75,6.35-17.81,12.91-37.78,12.91-20.56,0-30.52-6.86-40.14-13.5-9.24-6.36-18-12.38-36.25-12.38v-5c19.85,0,29.63,6.75,39.08,13.27S194.22,189,213.22,189c18.35,0,26.36-5.81,34.85-12,9.44-6.84,19.19-13.92,42.38-13.92s34.69,7,45.92,13.81c10.28,6.21,20,12.07,38.44,12.07Z"/><path class="cls-1" d="M285.13,303.32h-.59a31.61,31.61,0,0,1-21.37-54.37,31.3,31.3,0,0,1,22.52-8.85,23.08,23.08,0,0,0,16.73-6.56l1.77-1.74,20.87,20.87-1.8,1.77a22.12,22.12,0,0,0-6.55,16.23c0,.52,0,1.07,0,1.62a31.63,31.63,0,0,1-31.6,31Zm-.05-58.24a26.62,26.62,0,1,0,26.65,27.11c0-.47,0-.93,0-1.38A27.12,27.12,0,0,1,318,252.72l-14-14a28.08,28.08,0,0,1-18.5,6.34Z"/><path class="cls-1" d="M241.21,309a31.61,31.61,0,0,1-31.59-31c0-.55,0-1.09,0-1.64a22.08,22.08,0,0,0-6.55-16.21l-1.79-1.77,20.87-20.87,1.76,1.74a23,23,0,0,0,16.71,6.56,31.38,31.38,0,0,1,22.54,8.86l-3.47,3.6a26.5,26.5,0,0,0-19-7.46,28.06,28.06,0,0,1-18.47-6.33l-14,14a27.12,27.12,0,0,1,6.33,18.07c0,.48,0,.94,0,1.4a26.62,26.62,0,0,0,48.88,14.1l4.18,2.74a31.64,31.64,0,0,1-25.88,14.28Z"/></svg>