<svg id="Capa_1" data-name="Capa 1" xmlns="http://www.w3.org/2000/svg" viewBox="0 0 512 512"><defs><style>.cls-1{fill:#fcb65f;}</style></defs><path class="cls-1" d="M414.79,326.15H97.21a13,13,0,0,1,0-26H414.79a13,13,0,1,1,0,26Zm-317.58-18a5,5,0,0,0,0,10H414.79a5,5,0,1,0,0-10Z"/><path class="cls-1" d="M411.21,304.57h-8V87.78A4.17,4.17,0,0,0,399,83.61H109.49a4.17,4.17,0,0,0-4.17,4.17V304.57h-8V87.78a12.18,12.18,0,0,1,12.17-12.17H399a12.18,12.18,0,0,1,12.17,12.17Z"/><path class="cls-1" d="M395.89,442.74,342.64,318.29h54.89l28.64,124.22ZM354.77,326.29,401.15,434.7l15-.11-25-108.3Z"/><path class="cls-1" d="M123.12,442.74l-30.28-.23,28.64-124.22h54.89Zm-20.25-8.15,15,.11,46.39-108.41H127.85Z"/><path class="cls-1" d="M276.73,427.9H242.28V318.29h34.45Zm-26.45-8h18.45V326.29H250.28Z"/><polygon class="cls-1" points="360.07 302.77 202.51 198.27 102.67 262.27 99.97 258.06 202.56 192.3 362.84 298.61 360.07 302.77"/><polygon class="cls-1" points="404.04 257.58 315.52 207.96 260.67 237.63 258.29 233.23 315.56 202.25 406.48 253.22 404.04 257.58"/><path class="cls-1" d="M271.48,154a21,21,0,1,1,21-21A21.07,21.07,0,0,1,271.48,154Zm0-37.09a16,16,0,1,0,16,16A16.06,16.06,0,0,0,271.48,117Z"/><rect class="cls-1" x="170.08" y="131.85" width="58.74" height="5"/><rect class="cls-1" x="121.13" y="130.49" width="25.89" height="5"/><rect class="cls-1" x="326.19" y="133.11" width="58.74" height="5"/></svg>