<?xml version="1.0" encoding="utf-8"?>
<!-- Generator: Adobe Illustrator 25.1.0, SVG Export Plug-In . SVG Version: 6.00 Build 0)  -->
<svg version="1.1" id="Layer_1" xmlns="http://www.w3.org/2000/svg" xmlns:xlink="http://www.w3.org/1999/xlink" x="0px" y="0px"
	 viewBox="0 0 512.9 512.9" style="enable-background:new 0 0 512.9 512.9;" xml:space="preserve">
<style type="text/css">
	.st0{fill:#D4A45D;}
</style>
<path class="st0" d="M256.4,8.9C120.1,8.9,9.3,119.7,9.3,256c0,101.4,60.5,188.3,148.3,226.7c-0.9-17,0-38.3,4.3-57.1
	C167,405.1,193.4,291,193.4,291s-7.7-16.2-7.7-39.2c0-36.6,21.3-63.9,47.7-63.9c22.2,0,33.2,17,33.2,37.5
	c0,22.2-14.5,56.2-22.2,87.8c-6,26.4,12.8,47.7,39.2,47.7c46.9,0,78.4-60.5,78.4-131.2c0-54.5-36.6-94.6-103.1-94.6
	c-75,0-121.9,56.2-121.9,118.5c0,21.3,6,36.6,16.2,48.6c4.3,5.1,5.1,7.7,3.4,13.6c-0.9,4.3-4.3,15.3-5.1,19.6c-1.7,6-6.8,8.5-12.8,6
	c-34.9-14.5-50.3-52-50.3-94.6c0-69.9,58.8-154.2,176.4-154.2c94.6,0,156.8,68.2,156.8,141.5c0,97.1-53.7,169.6-132.9,169.6
	c-26.4,0-52-14.5-60.5-30.7c0,0-14.5,57.1-17,68.2c-5.1,18.7-15.3,38.3-24.7,52.8c22.2,6.8,46,10.2,69.9,10.2
	c136.3,0,247.1-110.8,247.1-247.1S392.8,8.9,256.4,8.9"/>
</svg>
